<?xml version="1.0" encoding="UTF-8" standalone="no"?>
<svg
   viewBox="0 0 1.44 1.44"
   width="30"
   height="30"
   version="1.1"
   id="svg2604"
   sodipodi:docname="homepage30x30.svg"
   inkscape:version="1.2.2 (732a01da63, 2022-12-09)"
   xmlns:inkscape="http://www.inkscape.org/namespaces/inkscape"
   xmlns:sodipodi="http://sodipodi.sourceforge.net/DTD/sodipodi-0.dtd"
   xmlns="http://www.w3.org/2000/svg"
   xmlns:svg="http://www.w3.org/2000/svg">
  <defs
     id="defs2608" />
  <sodipodi:namedview
     id="namedview2606"
     pagecolor="#ffffff"
     bordercolor="#000000"
     borderopacity="0.25"
     inkscape:showpageshadow="2"
     inkscape:pageopacity="0.0"
     inkscape:pagecheckerboard="0"
     inkscape:deskcolor="#d1d1d1"
     showgrid="false"
     inkscape:zoom="7.552"
     inkscape:cx="134.99735"
     inkscape:cy="52.568856"
     inkscape:window-width="2560"
     inkscape:window-height="1506"
     inkscape:window-x="-11"
     inkscape:window-y="-11"
     inkscape:window-maximized="1"
     inkscape:current-layer="svg2604" />
  <path
     fill="#1976d2"
     d="m 1.1387706,0.84944104 h -0.0893 c -0.16413572,0 -0.29766951,0.13353577 -0.29766951,0.29766936 0,0.1641357 0.13353322,0.2976695 0.29766951,0.2976695 h 0.0893 c 0.1641357,0 0.2976695,-0.1335356 0.2976695,-0.2976695 0,-0.16413577 -0.1335332,-0.29766936 -0.2976695,-0.29766936 m 0,0.47627096 h -0.0893 c -0.0984979,0 -0.17860247,-0.080102 -0.17860247,-0.1786025 0,-0.098498 0.0801021,-0.17860226 0.17860247,-0.17860226 h 0.0893 c 0.098498,0 0.1786025,0.0801021 0.1786025,0.17860226 0,0.098498 -0.080102,0.1786025 -0.1786025,0.1786025 M 0.39459721,0.84944104 h -0.0893 c -0.1641357,0 -0.29766928,0.13353577 -0.29766928,0.29766936 0,0.1641357 0.13353575,0.2976695 0.29766928,0.2976695 h 0.0893 c 0.16413573,0 0.29766953,-0.1335356 0.29766953,-0.2976695 0,-0.16413577 -0.13353577,-0.29766936 -0.29766953,-0.29766936 m 0,0.47627096 h -0.0893 c -0.0984979,0 -0.1786024,-0.080102 -0.1786024,-0.1786025 0,-0.098498 0.0801021,-0.17860226 0.1786024,-0.17860226 h 0.0893 c 0.0984979,0 0.17860247,0.0801021 0.17860247,0.17860226 0,0.098498 -0.0801021,0.1786025 -0.17860247,0.1786025"
     id="path2600"
     style="stroke-width:0.029767" />
  <path
     fill="#42a5f5"
     d="M 0.98993604,1.0875765 H 0.45413105 c -0.0328627,0 -0.0595335,0.026671 -0.0595335,0.059534 0,0.032862 0.0266708,0.059533 0.0595335,0.059533 h 0.53580499 c 0.0328627,0 0.0595335,-0.026671 0.0595335,-0.059533 0,-0.032863 -0.026671,-0.059534 -0.0595335,-0.059534"
     id="path2602"
     style="stroke-width:0.029767" />
</svg>
