<?xml version="1.0" encoding="UTF-8" standalone="no"?>
<svg
   viewBox="0 0 0.96 0.96"
   width="20"
   height="20"
   version="1.1"
   id="svg2604"
   sodipodi:docname="homepage.svg"
   inkscape:version="1.2.2 (732a01da63, 2022-12-09)"
   xmlns:inkscape="http://www.inkscape.org/namespaces/inkscape"
   xmlns:sodipodi="http://sodipodi.sourceforge.net/DTD/sodipodi-0.dtd"
   xmlns="http://www.w3.org/2000/svg"
   xmlns:svg="http://www.w3.org/2000/svg">
  <defs
     id="defs2608" />
  <sodipodi:namedview
     id="namedview2606"
     pagecolor="#ffffff"
     bordercolor="#000000"
     borderopacity="0.25"
     inkscape:showpageshadow="2"
     inkscape:pageopacity="0.0"
     inkscape:pagecheckerboard="0"
     inkscape:deskcolor="#d1d1d1"
     showgrid="false"
     inkscape:zoom="7.552"
     inkscape:cx="134.99735"
     inkscape:cy="52.568856"
     inkscape:window-width="2560"
     inkscape:window-height="1506"
     inkscape:window-x="-11"
     inkscape:window-y="-11"
     inkscape:window-maximized="1"
     inkscape:current-layer="svg2604" />
  <path
     fill="#1976d2"
     d="m 0.76138721,0.56144104 h -0.0595068 c -0.10937509,0 -0.19835797,0.0889842 -0.19835797,0.19835783 0,0.10937509 0.0889825,0.19835798 0.19835797,0.19835798 h 0.0595068 c 0.10937509,0 0.19835797,-0.0889841 0.19835797,-0.19835798 0,-0.10937508 -0.0889825,-0.19835783 -0.19835797,-0.19835783 m 0,0.31737257 h -0.0595068 c -0.065636,0 -0.11901529,-0.0533776 -0.11901529,-0.11901528 0,-0.065636 0.0533776,-0.11901517 0.11901529,-0.11901517 h 0.0595068 c 0.065636,0 0.11901529,0.0533776 0.11901529,0.11901517 0,0.065636 -0.0533776,0.11901528 -0.11901529,0.11901528 M 0.26549257,0.56144104 h -0.0595068 c -0.10937507,0 -0.19835781,0.0889842 -0.19835781,0.19835783 0,0.10937509 0.08898419,0.19835798 0.19835781,0.19835798 h 0.0595068 c 0.10937509,0 0.19835798,-0.0889841 0.19835798,-0.19835798 0,-0.10937508 -0.0889842,-0.19835783 -0.19835798,-0.19835783 m 0,0.31737257 h -0.0595068 c -0.065636,0 -0.11901524,-0.0533776 -0.11901524,-0.11901528 0,-0.065636 0.0533776,-0.11901517 0.11901524,-0.11901517 h 0.0595068 c 0.065636,0 0.11901529,0.0533776 0.11901529,0.11901517 0,0.065636 -0.0533776,0.11901528 -0.11901529,0.11901528"
     id="path2600"
     style="stroke-width:0.0198358" />
  <path
     fill="#42a5f5"
     d="M 0.66220837,0.72012733 H 0.30516412 c -0.0218987,0 -0.0396713,0.0177726 -0.0396713,0.0396713 0,0.0218985 0.0177726,0.0396713 0.0396713,0.0396713 h 0.35704425 c 0.0218987,0 0.0396713,-0.0177726 0.0396713,-0.0396713 0,-0.0218987 -0.0177726,-0.0396713 -0.0396713,-0.0396713"
     id="path2602"
     style="stroke-width:0.0198358" />
</svg>
