<?xml version="1.0" encoding="UTF-8" standalone="no"?>
<svg
   viewBox="0 0 1.2 0.48"
   width="25"
   height="10"
   version="1.1"
   id="svg2604"
   sodipodi:docname="homepage25x10.svg"
   inkscape:version="1.2.2 (732a01da63, 2022-12-09)"
   xmlns:inkscape="http://www.inkscape.org/namespaces/inkscape"
   xmlns:sodipodi="http://sodipodi.sourceforge.net/DTD/sodipodi-0.dtd"
   xmlns="http://www.w3.org/2000/svg"
   xmlns:svg="http://www.w3.org/2000/svg">
  <defs
     id="defs2608" />
  <sodipodi:namedview
     id="namedview2606"
     pagecolor="#ffffff"
     bordercolor="#000000"
     borderopacity="0.25"
     inkscape:showpageshadow="2"
     inkscape:pageopacity="0.0"
     inkscape:pagecheckerboard="0"
     inkscape:deskcolor="#d1d1d1"
     showgrid="false"
     inkscape:zoom="7.552"
     inkscape:cx="-5.9586865"
     inkscape:cy="25.95339"
     inkscape:window-width="2560"
     inkscape:window-height="1506"
     inkscape:window-x="-11"
     inkscape:window-y="-11"
     inkscape:window-maximized="1"
     inkscape:current-layer="svg2604"
     showguides="true">
    <sodipodi:guide
       position="0.85805085,-0.21915254"
       orientation="0,-1"
       id="guide2630"
       inkscape:locked="false" />
    <sodipodi:guide
       position="1.1377119,-0.71491525"
       orientation="0,-1"
       id="guide2632"
       inkscape:locked="false" />
  </sodipodi:namedview>
  <path
     fill="#1976d2"
     d="m 0.95391894,0.01058939 h -0.0742048 c -0.13639032,0 -0.24735166,0.10383477 -0.24735166,0.23146169 0,0.1276286 0.11096086,0.23146188 0.24735166,0.23146188 h 0.0742048 c 0.13639016,0 0.24735166,-0.1038347 0.24735166,-0.23146188 0,-0.1276287 -0.110961,-0.23146169 -0.24735166,-0.23146169 m 0,0.37033872 h -0.0742048 c -0.0818478,0 -0.14841163,-0.0622862 -0.14841163,-0.13887768 0,-0.0765901 0.0665618,-0.13887756 0.14841163,-0.13887756 h 0.0742048 c 0.081848,0 0.14841156,0.0622858 0.14841156,0.13887756 0,0.07659 -0.066563,0.13887768 -0.14841156,0.13887768 M 0.33554011,0.01058939 h -0.0742048 c -0.13639032,0 -0.24735148,0.10383477 -0.24735148,0.23146169 0,0.1276286 0.11096296,0.23146188 0.24735148,0.23146188 h 0.0742048 c 0.13639034,0 0.24735168,-0.1038347 0.24735168,-0.23146188 0,-0.1276287 -0.11096298,-0.23146169 -0.24735168,-0.23146169 m 0,0.37033872 h -0.0742048 c -0.0818478,0 -0.14841159,-0.0622862 -0.14841159,-0.13887768 0,-0.0765901 0.0665618,-0.13887756 0.14841159,-0.13887756 h 0.0742048 c 0.0818479,0 0.14841163,0.0622858 0.14841163,0.13887756 0,0.07659 -0.0665617,0.13887768 -0.14841163,0.13887768"
     id="path2600"
     style="display:inline;stroke-width:0.0239276" />
  <path
     fill="#42a5f5"
     d="M 0.83024327,0.19957231 H 0.38501039 c -0.0273076,0 -0.0494701,0.0218782 -0.0494701,0.0488344 0,0.0269563 0.0221625,0.0488344 0.0494701,0.0488344 h 0.44523288 c 0.0273076,0 0.0494701,-0.0218782 0.0494701,-0.0488344 0,-0.0269571 -0.0221626,-0.0488344 -0.0494701,-0.0488344"
     id="path2602"
     style="display:inline;stroke-width:0.0245759" />
</svg>
