<?xml version="1.0" encoding="UTF-8" standalone="no"?>
<svg
   width="13"
   height="13"
   viewBox="0 0 13 13"
   version="1.1"
   id="svg18502"
   sodipodi:docname="mundo.svg"
   xmlns:inkscape="http://www.inkscape.org/namespaces/inkscape"
   xmlns:sodipodi="http://sodipodi.sourceforge.net/DTD/sodipodi-0.dtd"
   xmlns="http://www.w3.org/2000/svg"
   xmlns:svg="http://www.w3.org/2000/svg">
  <sodipodi:namedview
     id="namedview18504"
     pagecolor="#ffffff"
     bordercolor="#000000"
     borderopacity="0.25"
     inkscape:showpageshadow="2"
     inkscape:pageopacity="0.0"
     inkscape:pagecheckerboard="0"
     inkscape:deskcolor="#d1d1d1"
     showgrid="false" />
  <defs
     id="defs18496">
    <style
       id="style18494">
      .cls-1 {
        fill: #bbdefb;
      }

      .cls-2 {
        fill: #42a5f5;
        fill-rule: evenodd;
      }
    </style>
  </defs>
  <circle
     class="cls-1"
     cx="6.4920998"
     cy="6.5278692"
     r="6.4562473"
     id="circle18498"
     style="stroke-width:0.026908" />
  <path
     id="path18509"
     data-name="Shape 327 1 copy"
     class="cls-2"
     d="M 6.192829,0.10326464 V 12.989497 h 0.9651346 v -0.03229 h 0.2573509 v -0.03229 h 0.193039 v -0.0323 h 0.1931401 v -0.03229 l 0.2895319,-0.03229 v -0.03229 l 0.2251914,-0.03229 v -0.0323 h 0.096515 v -0.03229 h 0.096444 v -0.03229 h 0.096515 v -0.0323 l 0.1930114,-0.03229 v -0.03229 h 0.064323 v -0.0323 h 0.096515 v -0.03229 h 0.064323 v -0.03229 h 0.096515 v -0.0323 l 0.1930114,-0.06438 v -0.0323 h 0.064323 v -0.03229 h 0.064384 v -0.03229 h 0.064323 v -0.0323 l 0.1930124,-0.06446 q 0.016147,-0.03229 0.032294,-0.06459 l 0.1286719,-0.0323 v -0.03229 l 0.096515,-0.03229 0.032162,-0.06446 0.128698,-0.0323 0.06432,-0.09666 h 0.06432 q 0.01615,-0.03229 0.03229,-0.06446 h 0.06432 l 0.06432,-0.09663 h 0.06432 l 0.09652,-0.128861 h 0.06432 l 0.160859,-0.193309 h 0.06432 l 0.289532,-0.322144 0.160859,-0.128861 v -0.06442 l 0.193039,-0.161098 v -0.06441 l 0.128672,-0.09666 v -0.06442 l 0.09652,-0.06444 v -0.06443 l 0.06432,-0.03228 v -0.06442 l 0.09652,-0.06445 q 0.01615,-0.06442 0.03216,-0.128835 l 0.06432,-0.032284 q 0.01615,-0.048431 0.03229,-0.096628 h 0.03216 q 0.01615,-0.064578 0.03229,-0.1288628 l 0.06432,-0.032284 0.06432,-0.193281 h 0.03229 v -0.064446 h 0.03229 v -0.064425 h 0.03216 v -0.064425 h 0.03229 l 0.06438,-0.193314 h 0.03216 v -0.096658 h 0.03229 v -0.064415 h 0.03229 v -0.094555 c 0.265915,-0.6097894 0.450314,-1.3114135 0.450394,-2.190632 V 5.9018063 h -0.03229 V 5.6440805 h -0.03297 V 5.4508016 h -0.03229 V 5.257493 h -0.03229 q -0.01616,-0.1449519 -0.03217,-0.2899333 h -0.03229 V 4.8386988 h -0.03216 v -0.096658 h -0.03229 V 4.6131776 h -0.03229 v -0.064415 h -0.03216 l -0.06384,-0.2897975 h -0.03229 q -0.01615,-0.080532 -0.03229,-0.1610724 h -0.03229 v -0.064446 h -0.03229 v -0.096648 h -0.03216 l -0.06436,-0.193278 h -0.03229 v -0.064578 h -0.03216 v -0.064425 h -0.03229 v -0.064578 h -0.03229 v -0.064421 h -0.03216 v -0.06442 h -0.03134 v -0.064576 l -0.06432,-0.032288 q -0.01615,-0.06442 -0.03229,-0.1288629 h -0.03216 q -0.01615,-0.048435 -0.03229,-0.096654 l -0.06432,-0.032288 q -0.01615,-0.06442 -0.03216,-0.1288629 -0.04824,-0.032288 -0.09652,-0.064441 v -0.064403 l -0.06432,-0.032288 v -0.063934 l -0.09652,-0.064414 v -0.06445 L 11.500646,2.4869831 V 2.422569 L 11.307789,2.2616884 V 2.1972406 L 11.14693,2.0683791 10.889586,1.7784443 h -0.06418 L 10.632373,1.5529294 h -0.06432 l -0.09652,-0.1288615 h -0.06432 l -0.06432,-0.096654 h -0.06432 l -0.03229,-0.064441 h -0.06432 l -0.03229,-0.064448 h -0.06432 l -0.03216,-0.064448 H 9.9887837 L 9.9568979,1.0697113 H 9.8925747 L 9.8602804,1.0052707 9.6672679,0.9408229 9.6349736,0.8764027 9.4421511,0.8119825 V 0.77969427 H 9.3777667 V 0.74767566 H 9.3134629 V 0.71538743 L 9.1204515,0.65081097 V 0.61852274 H 9.0239361 V 0.58623451 H 8.9596129 V 0.55394627 H 8.8630975 V 0.52165957 H 8.7987744 V 0.48937134 L 8.6057619,0.45708311 V 0.42479488 H 8.5092976 V 0.39250665 H 8.4127822 V 0.36021841 H 8.3162668 V 0.32793151 H 8.1875919 v -0.032288 L 7.9302205,0.26335545 V 0.23214166 L 7.6085291,0.19985373 V 0.1675655 H 7.3833377 V 0.13527727 H 7.1259653 V 0.10298904 H 6.1929577 Z M 6.8362517,3.3247959 V 0.81199429 c 0.2708304,0.0275789 0.526587,0.19206941 0.7076816,0.32214161 q 0.064323,0.080536 0.1286719,0.1610719 h 0.064323 l 0.064589,0.096654 h 0.032294 v 0.064448 L 8.0268226,1.617381 v 0.064448 l 0.096515,0.064448 v 0.064285 l 0.064323,0.032288 v 0.064576 l 0.096515,0.06442 q 0.016147,0.06442 0.032162,0.1288629 l 0.064384,0.032288 v 0.06442 h 0.032162 v 0.064448 h 0.032294 v 0.064259 h 0.031753 v 0.064448 h 0.032294 v 0.064414 h 0.032162 v 0.064448 h 0.032294 v 0.06442 h 0.032294 l 0.064323,0.1932802 h 0.032294 v 0.096626 h 0.032294 v 0.064448 H 8.76705 Q 8.831373,3.1314619 8.8957495,3.3247954 H 6.8363222 Z m 4.4395513,0 H 9.6029336 V 3.2925077 H 9.5706393 C 9.5554378,3.0922324 9.4437435,2.8942702 9.3776003,2.7448502 V 2.6482776 H 9.3454387 Q 9.3292915,2.5838574 9.3131444,2.5194147 H 9.2809828 V 2.4227625 H 9.2486884 L 9.1843724,2.2294818 H 9.152078 V 2.165034 H 9.1197837 V 2.1006128 H 9.0874893 L 9.0238504,1.9074137 8.9595272,1.8751255 Q 8.9433801,1.8107053 8.9272329,1.7462626 H 8.8950713 Q 8.8789241,1.6978272 8.8627769,1.6496083 L 8.7984538,1.6173201 Q 8.7823066,1.552906 8.7661594,1.4884579 L 8.6696644,1.4240173 V 1.3596502 L 8.573149,1.2952025 v -0.06442 H 8.5408547 L 8.4443597,1.1019201 h 0.064793 c 0.065937,0.071925 0.1340297,0.053199 0.2251913,0.096654 v 0.032288 h 0.096515 v 0.032288 l 0.1930125,0.064448 v 0.032288 h 0.064323 v 0.032288 h 0.064323 v 0.032288 l 0.193039,0.064441 0.032162,0.06442 0.1287066,0.032288 v 0.032288 l 0.096515,0.032288 0.032162,0.064448 h 0.064323 v 0.032288 l 0.096515,0.032288 q 0.016147,0.032288 0.032294,0.064441 h 0.064323 l 0.064323,0.096654 h 0.064323 l 0.06432,0.096653 h 0.06432 l 0.160852,0.1933065 h 0.06432 l 0.289343,0.3213356 0.160852,0.1288629 v 0.064441 l 0.160832,0.1288352 v 0.064448 l 0.09652,0.064414 q 0.01615,0.048435 0.03229,0.096654 l 0.06432,0.032288 0.03229,0.096654 h 0.03229 q 0.01581,0.048246 0.03189,0.096573 z m 0.418204,0.6443121 q 0.06432,0.1771625 0.128671,0.3543505 h 0.03229 v 0.096658 h 0.03229 v 0.064415 h 0.03216 q 0.01615,0.096679 0.03229,0.1933066 h 0.03216 v 0.064425 h 0.03229 v 0.1288636 a 4.2361235,4.2361235 0 0 1 0.257379,1.3530407 h -2.220205 q -0.01615,-0.418742 -0.03229,-0.8375923 H 9.9887644 V 5.0966418 H 9.9568786 V 4.8389171 H 9.9245842 V 4.6456279 H 9.8924226 V 4.4523213 C 9.8499967,4.3129378 9.8172734,4.1048577 9.7637232,3.969108 Z m -2.6058232,0 c 0.014319,0.1744437 0.083841,0.3702525 0.1286995,0.5154219 q 0.016147,0.19328 0.032162,0.3865876 c 0.113018,0.3823624 0.1224019,0.8723021 0.1286718,1.3530407 H 6.8362609 V 3.969108 Z m 3.1849052,2.8993615 a 2.8726691,2.8726691 0 0 1 -0.128646,0.8699081 l -0.06432,0.3865601 h -0.03229 q -0.03216,0.1610714 -0.06432,0.3221694 h -0.03216 v 0.064415 h -0.03229 q -0.01615,0.096679 -0.03216,0.1933076 h -0.03229 v 0.064415 h -0.03229 v 0.096577 H 11.79016 A 1.2779676,1.2779676 0 0 0 11.69362,9.1235452 H 9.7959307 c 0.00266,-0.21938 0.075343,-0.4637304 0.1286791,-0.6443112 q 0.016147,-0.2255152 0.032294,-0.4510048 h 0.032162 q 0.032294,-0.57984 0.064384,-1.1597341 h 2.219907 z m -2.8952998,0 C 9.3919142,7.729821 9.2246596,8.4243703 9.0882645,9.1235463 H 6.8363334 V 6.8684695 Z m 0.225219,2.8993881 h 1.7050288 v 0.032284 c -0.0874,0.056153 -0.100825,0.1403242 -0.160859,0.2255164 l -0.06432,0.03228 q -0.01615,0.04843 -0.03216,0.09663 l -0.160852,0.128862 v 0.06458 l -0.06432,0.03228 v 0.03228 l -0.675602,0.644314 h -0.06432 L 9.989089,11.185748 H 9.924561 l -0.032162,0.06446 H 9.828076 l -0.064384,0.09663 H 9.699369 l -0.032162,0.06446 H 9.602884 v 0.03229 H 9.538499 q -0.016147,0.03229 -0.032162,0.06459 l -0.1286994,0.03229 -0.032162,0.06438 -0.193039,0.06459 v 0.03229 l -0.1930124,0.06438 v 0.03229 l -0.1286719,0.03229 v 0.03229 h -0.096515 v 0.03229 l -0.2895248,0.09666 v -0.03229 l 0.1286719,-0.09665 v -0.06438 l 0.096515,-0.06446 v -0.0656 l 0.096495,-0.06459 q 0.016147,-0.06438 0.032294,-0.128862 l 0.064323,-0.03229 q 0.016147,-0.04844 0.032294,-0.09666 h 0.032162 q 0.016147,-0.06438 0.032294,-0.128862 l 0.064323,-0.03229 0.064323,-0.193283 h 0.032294 v -0.06459 h 0.032294 v -0.06438 h 0.032294 l 0.064323,-0.193311 h 0.032294 V 10.5728 h 0.032162 q 0.016147,-0.06458 0.032294,-0.128862 h 0.032162 Q 9.490318,10.106292 9.6029316,9.7678698 Z m -0.7076744,0 q -0.08046,0.2415804 -0.160859,0.4832144 h -0.032294 q -0.016147,0.06442 -0.032294,0.128863 h -0.032294 v 0.09665 h -0.032162 q -0.016147,0.06442 -0.032294,0.128862 h -0.032294 q -0.016147,0.06442 -0.032162,0.128863 l -0.064323,0.03228 -0.064323,0.193278 -0.064384,0.03229 q -0.016147,0.06438 -0.032162,0.128862 H 8.251193 q -0.016147,0.04844 -0.032294,0.09663 l -0.064385,0.03229 v 0.06438 l -0.096495,0.06446 v 0.06438 l -0.1608519,0.128861 v 0.06438 l -0.160859,0.128862 q -0.016147,0.03229 -0.032294,0.06446 H 7.6396909 L 7.511019,11.990808 C 7.3593417,12.097853 7.0600132,12.261104 6.8354439,12.280744 V 9.7677779 h 2.0589125 z"
     style="stroke-width:0.026908" />
  <path
     id="Shape_327_1"
     data-name="Shape 327 1"
     class="cls-2"
     d="M 6.7955386,0.10326464 V 12.989497 h -0.965106 v -0.03229 H 5.5730541 v -0.03229 H 5.3800488 v -0.0323 h -0.193039 v -0.03229 l -0.2895319,-0.03229 v -0.03229 l -0.2251914,-0.03229 v -0.0323 h -0.096515 v -0.03229 h -0.096515 v -0.03229 h -0.096495 v -0.0323 l -0.193039,-0.03229 v -0.03229 h -0.064323 v -0.0323 H 4.029016 v -0.03229 H 3.964427 v -0.03229 H 3.867912 v -0.0323 l -0.1930125,-0.06438 v -0.0323 h -0.064323 v -0.03229 h -0.064323 v -0.03229 h -0.064252 v -0.0323 l -0.1930053,-0.06446 q -0.016147,-0.03229 -0.032294,-0.06459 l -0.1286729,-0.0323 v -0.03229 l -0.096515,-0.03229 -0.032162,-0.06446 -0.1286995,-0.0323 -0.064323,-0.09666 h -0.064323 l -0.032294,-0.06446 h -0.064119 l -0.064323,-0.09663 H 2.5168137 L 2.4202983,11.53765 H 2.3559853 L 2.1951263,11.344341 H 2.1308031 L 1.8413867,11.024055 1.6805276,10.895194 v -0.06443 L 1.4875295,10.669671 v -0.06443 l -0.1286729,-0.09666 v -0.06442 l -0.096515,-0.06445 v -0.06442 l -0.064323,-0.03228 v -0.06442 L 1.1014516,10.154207 1.0691572,10.025344 1.004834,9.9930594 0.97253968,9.8964317 H 0.94024532 L 0.90795097,9.7675709 0.84362779,9.7352867 0.77930462,9.5420067 H 0.74701026 V 9.477561 H 0.7147159 V 9.4131459 H 0.68242154 V 9.3487308 H 0.65012718 L 0.585804,9.1554242 H 0.55350964 V 9.0589599 H 0.52121528 V 8.9945346 H 0.48892092 V 8.8981009 C 0.2242522,8.2882318 0.03982097,7.5866047 0.03976684,6.7073861 V 5.9020136 H 0.0720612 V 5.6442879 h 0.03229436 v -0.19328 h 0.0322944 V 5.2577003 h 0.0322944 L 0.20123864,4.967767 H 0.233533 V 4.8389051 H 0.2658274 V 4.7422471 H 0.2981218 V 4.6133839 H 0.3304162 V 4.5489689 H 0.3627106 L 0.4258797,4.2591704 H 0.4581741 L 0.4904685,4.098099 H 0.5227629 V 4.033653 H 0.5550573 V 3.937005 H 0.5873517 L 0.6516749,3.743725 H 0.6839693 V 3.679146 H 0.7162637 V 3.614731 H 0.7485581 V 3.550152 H 0.7808525 V 3.485732 H 0.8131469 V 3.421311 H 0.8454413 V 3.356736 L 0.9097645,3.324448 0.9420589,3.1955851 h 0.0322944 l 0.0322944,-0.096654 0.064323,-0.032288 0.032294,-0.1288629 0.096515,-0.064441 v -0.064414 l 0.064323,-0.032288 v -0.063934 l 0.096515,-0.064414 V 2.5838407 L 1.4892913,2.4871874 V 2.4227733 L 1.6823027,2.2617015 V 2.1972537 L 1.8414929,2.0684185 2.0988652,1.7784852 h 0.064323 l 0.193039,-0.2255154 h 0.064323 l 0.096301,-0.1288629 h 0.064323 l 0.064323,-0.096653 h 0.064323 l 0.032294,-0.064448 h 0.064323 l 0.032294,-0.064441 h 0.064323 l 0.032294,-0.064448 h 0.064323 l 0.032162,-0.06442 h 0.064323 q 0.016147,-0.032288 0.032294,-0.064448 L 3.3214892,0.9408083 3.3536512,0.8763881 3.5466891,0.8119403 V 0.7796506 h 0.064323 V 0.7476871 h 0.064323 V 0.71539948 L 3.868349,0.65095171 V 0.61866348 H 3.964405 V 0.58637528 H 4.028994 V 0.55408708 H 4.125509 V 0.52179878 H 4.189832 V 0.48951058 L 4.382871,0.45722238 V 0.42493408 H 4.479366 V 0.39264588 H 4.575881 V 0.36035968 H 4.672396 V 0.32807143 H 4.8010687 V 0.2957832 L 5.0584411,0.263495 V 0.2321464 L 5.3801591,0.1998582 V 0.16756989 H 5.6053505 V 0.13528269 H 5.8626953 V 0.10299445 H 6.7956264 Z M 6.1520351,3.3247959 V 0.81199429 C 5.8812048,0.83957319 5.6254481,1.0040637 5.4443546,1.1341359 L 5.3156551,1.2952078 H 5.251332 L 5.187009,1.3918618 H 5.154847 v 0.064448 L 4.961808,1.617381 V 1.681829 L 4.865313,1.746243 V 1.810556 L 4.80099,1.842844 V 1.90742 L 4.704413,1.971759 Q 4.688266,2.036179 4.672119,2.1006205 l -0.064323,0.032288 v 0.064414 H 4.575502 v 0.064448 H 4.54334 v 0.064339 H 4.511046 v 0.064448 H 4.478752 v 0.064414 H 4.446458 v 0.064448 H 4.414164 v 0.06442 H 4.382002 L 4.317617,2.7771196 H 4.286201 v 0.096626 H 4.253907 v 0.064448 H 4.2216117 Q 4.1572885,3.1314483 4.0929061,3.3247817 h 2.0590821 z m -4.4395164,0 h 1.6728682 v -0.032288 h 0.032294 C 3.4328786,3.0922322 3.5445761,2.89427 3.6107203,2.74485 V 2.648277 h 0.032162 q 0.016147,-0.06442 0.032294,-0.1288629 h 0.032162 v -0.096652 h 0.032294 l 0.064323,-0.1932809 h 0.032294 v -0.064447 h 0.032162 v -0.064421 h 0.032294 l 0.06371,-0.1931991 0.064323,-0.032288 q 0.016147,-0.06442 0.032294,-0.1288629 h 0.032162 q 0.016147,-0.048435 0.032294,-0.096654 l 0.064323,-0.032288 q 0.016149,-0.064415 0.032296,-0.1288631 l 0.096495,-0.064441 v -0.064367 l 0.096515,-0.064448 v -0.06442 h 0.032294 l 0.096516,-0.1288618 h -0.064385 c -0.065876,0.071925 -0.1340308,0.053199 -0.2251924,0.096654 v 0.032288 h -0.096495 v 0.032288 l -0.1934721,0.064285 v 0.032288 h -0.064323 v 0.032288 H 3.835737 v 0.032288 l -0.193039,0.064449 -0.032162,0.064414 -0.1286994,0.032288 v 0.032288 L 3.385342,1.6500267 3.353048,1.7144747 H 3.289001 v 0.032288 L 3.192486,1.7790507 3.160192,1.8434917 H 3.095806 Q 3.063644,1.8919267 3.031483,1.9401457 H 2.96716 L 2.902837,2.0367987 H 2.8385133 L 2.6776604,2.2301062 H 2.6134088 L 2.3238779,2.5516033 2.163025,2.6804662 v 0.064441 L 2.002166,2.873742 V 2.93819 L 1.905651,3.00255 1.873357,3.099204 1.809034,3.131492 1.77674,3.228146 H 1.7444443 Z M 1.294369,3.969108 1.16569,4.3234585 H 1.133396 v 0.096658 H 1.101439 v 0.064415 H 1.069145 L 1.036851,4.6778381 H 1.004557 v 0.064425 H 0.97226086 V 4.8711267 A 4.2354776,4.2354776 0 0 0 0.71488237,6.2241674 H 2.9347897 q 0.016147,-0.418742 0.032294,-0.8375923 h 0.032294 V 5.0966418 H 3.03154 V 4.8389171 H 3.063834 V 4.6456279 H 3.095996 V 4.4523213 C 3.1384219,4.3129378 3.1711452,4.1048577 3.2246954,3.969108 Z m 2.6058158,0 c -0.014319,0.1744437 -0.08382,0.3702525 -0.1286719,0.5154219 q -0.016147,0.19328 -0.032294,0.3865876 C 3.6262077,5.2534799 3.6168431,5.7434196 3.6105466,6.2241582 H 6.15203 V 3.969108 H 3.900098 Z M 0.71530619,6.8684695 a 2.8724539,2.8724539 0 0 0 0.12867188,0.8699081 l 0.0643232,0.3865601 h 0.0322944 l 0.0643232,0.3221694 h 0.032294 v 0.064415 h 0.032294 l 0.032294,0.1933076 h 0.032294 v 0.064415 h 0.032294 v 0.096577 h 0.032294 a 1.2776178,1.2776178 0 0 1 0.096515,0.2577237 H 3.1924307 C 3.1897752,8.9041652 3.1170874,8.6598148 3.0637516,8.479234 Q 3.0476045,8.2537188 3.0314573,8.0282292 H 2.9992957 Q 2.9670013,7.4483892 2.9349725,6.8684951 H 0.71506516 Z m 2.89529971,0 C 3.5964809,7.729821 3.7637355,8.4243703 3.9001306,9.1235463 H 6.1520351 V 6.8684695 H 3.6105793 Z M 3.3854145,9.7678576 H 1.6804133 v 0.032284 c 0.087426,0.056153 0.1008254,0.1403242 0.160859,0.2255164 l 0.064323,0.03228 0.032294,0.09663 0.1608529,0.128862 v 0.06458 l 0.064323,0.03228 v 0.03228 l 0.6755752,0.644314 h 0.064323 l 0.096515,0.128862 h 0.064323 l 0.032162,0.06446 h 0.064385 l 0.064323,0.09663 h 0.064323 q 0.016147,0.03229 0.032294,0.06446 h 0.064323 v 0.03229 h 0.064323 q 0.016147,0.03229 0.032162,0.06459 l 0.1287066,0.03229 0.032162,0.06438 0.193039,0.06459 v 0.03229 l 0.1930114,0.06438 v 0.03229 l 0.1286994,0.03229 v 0.03229 h 0.096495 v 0.03229 l 0.2895575,0.09666 v -0.03229 l -0.1287056,-0.09665 v -0.06438 l -0.096515,-0.06446 v -0.0656 l -0.096495,-0.06459 q -0.016147,-0.06438 -0.032294,-0.128862 l -0.064323,-0.03229 q -0.016147,-0.04844 -0.032294,-0.09666 h -0.032162 q -0.016147,-0.06438 -0.032294,-0.128862 l -0.064323,-0.03203 -0.064323,-0.193275 h -0.032294 v -0.06459 h -0.032161 v -0.06438 h -0.032294 l -0.064323,-0.193311 h -0.032294 v -0.09663 h -0.032162 q -0.016147,-0.06458 -0.032294,-0.128863 H 3.6100523 Q 3.4979801,10.106296 3.3853941,9.7678739 Z m 0.7076744,0 q 0.08043,0.2415804 0.160859,0.4832144 h 0.032294 q 0.016147,0.06442 0.032162,0.128863 h 0.032294 v 0.09665 h 0.032294 q 0.016147,0.06442 0.032162,0.128862 h 0.032294 q 0.016147,0.06442 0.032294,0.128863 l 0.064385,0.03228 q 0.032162,0.09663 0.064323,0.193278 l 0.064323,0.03229 q 0.016147,0.06438 0.032294,0.128862 h 0.032294 q 0.016147,0.04844 0.032294,0.09663 l 0.064323,0.03229 v 0.06438 l 0.096495,0.06446 v 0.06438 l 0.1608529,0.128861 v 0.06438 l 0.160859,0.128862 q 0.016147,0.03229 0.032294,0.06446 h 0.064323 l 0.1286729,0.161069 c 0.1517038,0.107045 0.4510323,0.270296 0.6755822,0.289936 V 9.7677779 H 4.0932207 Z"
     style="stroke-width:0.026908" />
</svg>
