<?xml version="1.0" encoding="UTF-8" standalone="no"?>
<svg
   width="13.01273"
   height="13.00251"
   viewBox="0 0 13.01273 13.00251"
   version="1.1"
   id="svg8724"
   sodipodi:docname="Untitled-3.svg"
   xmlns:inkscape="http://www.inkscape.org/namespaces/inkscape"
   xmlns:sodipodi="http://sodipodi.sourceforge.net/DTD/sodipodi-0.dtd"
   xmlns="http://www.w3.org/2000/svg"
   xmlns:svg="http://www.w3.org/2000/svg">
  <sodipodi:namedview
     id="namedview8726"
     pagecolor="#ffffff"
     bordercolor="#000000"
     borderopacity="0.25"
     inkscape:showpageshadow="2"
     inkscape:pageopacity="0.0"
     inkscape:pagecheckerboard="0"
     inkscape:deskcolor="#d1d1d1"
     showgrid="false" />
  <defs
     id="defs8720">
    <style
       id="style8718">
      .cls-1 {
        fill: #1976d2;
      }

      .cls-1, .cls-2 {
        fill-rule: evenodd;
      }

      .cls-2 {
        fill: #42a5f5;
      }
    </style>
  </defs>
  <path
     id="Shape_335_1"
     data-name="Shape 335 1"
     class="cls-1"
     d="m 1.488754,8.9306108 h 2.7248247 a 0.29827144,0.29827144 0 0 0 0.054848,0.054903 l 0.1218989,0.1220059 0.04266,0.048793 0.3475428,0.3415355 q 0.042661,0.045738 0.085332,0.091519 l 0.3901347,0.3843222 c 0.071784,0.071825 0.1358226,0.1469876 0.2194674,0.2074056 l 0.024376,0.03049 h 0.012187 l 0.012187,0.0183 0.018287,0.0061 c 0.00179,0.0041 0.00412,0.0081 0.00613,0.01221 h 0.012187 c 0.00179,0.0041 0.00412,0.0081 0.00613,0.01221 h 0.012187 q 0.00613,0.0092 0.012187,0.0183 h 0.012187 l 0.00613,0.01219 0.024376,0.0061 v 0.0061 l 0.018286,0.0061 c 0.00179,0.0041 0.00412,0.0081 0.00613,0.01221 l 0.024376,0.0061 0.00613,0.01221 0.036563,0.01219 c 0.00179,0.0041 0.00412,0.0081 0.00613,0.01221 l 0.036563,0.01218 v 0.0061 h 0.012251 v 0.0061 l 0.036563,0.01221 v 0.0061 h 0.018286 v 0.0061 h 0.012187 v 0.0061 l 0.024376,0.0061 v 0.0061 h 0.018287 v 0.0061 h 0.012187 v 0.0061 h 0.018287 v 0.0061 h 0.012187 v 0.0061 l 0.036563,0.0061 v 0.0061 h 0.018287 v 0.0061 h 0.018287 v 0.0061 h 0.018286 v 0.0061 h 0.018287 v 0.0061 h 0.024376 v 0.0061 h 0.018287 v 0.0061 h 0.024376 c 0.044998,0.01518 0.1049537,0.02286 0.1523874,0.03659 l 0.103643,0.0061 c 0.029766,0.0082 0.082058,-0.0032 0.1157989,0.0061 v 0.0059 h 0.042662 v -0.0061 h 0.1219224 v -0.0061 h 0.05485 v -0.0061 h 0.042662 v -0.0061 h 0.042662 v -0.0059 h 0.030359 v -0.0061 h 0.030475 v -0.0061 h 0.024376 v -0.0061 h 0.024376 v -0.0061 l 0.048751,-0.0061 v -0.0061 l 0.042662,-0.0061 v -0.0061 h 0.018286 v -0.0061 h 0.018287 v -0.0061 l 0.036563,-0.0061 v -0.0061 h 0.012187 v -0.0061 h 0.018287 v -0.0061 l 0.030475,-0.0061 v -0.006 h 0.012251 v -0.0061 h 0.018286 v -0.0061 l 0.036563,-0.01219 v -0.0061 h 0.012187 v -0.0061 h 0.012187 v -0.0061 h 0.012187 v -0.0061 h 0.012187 v -0.0061 h 0.012187 v -0.0061 h 0.012135 v -0.0061 h 0.012187 v -0.006 h 0.012187 v -0.0061 h 0.012187 v -0.0061 h 0.012187 c 0.00179,-0.0041 0.00412,-0.0081 0.00613,-0.01221 l 0.024376,-0.0061 v -0.0061 l 0.018286,-0.0061 0.00613,-0.01219 0.024376,-0.0061 v -0.0061 l 0.018287,-0.0061 c 0.00179,-0.0041 0.00412,-0.0081 0.00613,-0.01221 h 0.012187 l 0.012187,-0.01831 h 0.012187 l 0.00613,-0.01219 h 0.012187 q 0.00613,-0.0092 0.012187,-0.0183 h 0.012187 l 0.018287,-0.02439 h 0.012187 l 0.024376,-0.03052 h 0.012187 l 0.042662,-0.04879 h 0.012135 L 7.8770869,9.8515045 8.4074195,9.3268725 8.7975578,8.9303413 h 2.7248952 c 0.01412,0.011617 0.03938,-1.343e-4 0.06096,0.00613 v 0.00613 h 0.04266 v 0.00613 h 0.03656 v 0.00613 h 0.03656 v 0.00602 h 0.03047 v 0.00613 h 0.02437 v 0.00613 h 0.02437 v 0.00613 h 0.02437 v 0.00613 h 0.02437 v 0.00613 h 0.01829 v 0.00613 h 0.02426 v 0.00613 h 0.01829 v 0.00613 h 0.01829 v 0.00613 h 0.01829 v 0.00613 h 0.01237 v 0.00623 l 0.03656,0.00613 v 0.00613 h 0.01219 v 0.00613 h 0.01829 v 0.00613 h 0.01219 v 0.00592 h 0.01829 v 0.00613 h 0.01219 v 0.00613 l 0.02437,0.00613 v 0.00613 h 0.01219 v 0.00613 h 0.01219 v 0.00613 h 0.01219 v 0.00613 h 0.01219 v 0.00613 h 0.01219 v 0.00613 h 0.01219 v 0.00613 h 0.01219 v 0.00623 h 0.01219 v 0.00613 h 0.01219 v 0.00613 h 0.01208 c 0.0018,0.00412 0.0041,0.00814 0.0061,0.012208 l 0.02437,0.00613 c 0.0018,0.00412 0.0041,0.00814 0.0061,0.012208 l 0.02437,0.00613 0.0061,0.012208 h 0.01219 c 0.0018,0.00402 0.0041,0.00814 0.0061,0.012187 h 0.01226 c 0.0018,0.00412 0.0041,0.00814 0.0061,0.012208 h 0.01219 l 0.0061,0.012208 h 0.01219 c 0.0018,0.00402 0.0041,0.00814 0.0061,0.012177 l 0.01829,0.00613 0.01219,0.018287 h 0.01219 l 0.01829,0.024418 h 0.01219 l 0.01829,0.024397 h 0.01219 l 0.03656,0.042704 h 0.01219 q 0.01518,0.018287 0.03048,0.036605 l 0.07315,0.067101 v 0.01233 l 0.04266,0.036584 v 0.012145 l 0.02437,0.018298 v 0.012208 l 0.02437,0.018286 v 0.012209 l 0.01829,0.012208 v 0.012177 l 0.01829,0.012208 v 0.012187 l 0.01219,0.00613 v 0.012177 l 0.01219,0.00613 v 0.012176 l 0.01219,0.00611 v 0.012296 l 0.01219,0.00611 q 0.003,0.012206 0.0061,0.024413 l 0.01219,0.00611 q 0.003,0.012206 0.0061,0.024393 l 0.01219,0.00611 v 0.012206 h 0.0061 v 0.012206 h 0.0061 v 0.012176 h 0.0061 v 0.012206 h 0.0061 v 0.012036 h 0.0061 v 0.012206 h 0.0061 v 0.012206 h 0.0061 v 0.012186 h 0.0061 v 0.012206 h 0.0061 v 0.012186 h 0.0061 q 0.003,0.012206 0.0061,0.024413 h 0.0061 v 0.012176 h 0.0061 v 0.018299 h 0.0061 v 0.012206 h 0.0061 v 0.018299 h 0.0061 v 0.012176 h 0.0061 l 0.04876,0.1464016 v 0.02441 c 0.01036,0.03049 0.02092,0.0718 0.03048,0.103707 v 0.03661 h 0.0061 v 0.03659 h 0.0061 v 0.0427 h 0.0061 q 0.003,0.08542 0.0061,0.170822 v 0.768645 c 0,0.06686 0.0098,0.157549 -0.0061,0.213499 v 0.0611 h -0.0061 v 0.0427 h -0.0061 v 0.03661 h -0.0061 v 0.03661 h -0.0061 v 0.03049 h -0.0061 v 0.02442 h -0.0061 v 0.02435 h -0.0061 v 0.02439 h -0.0061 v 0.02439 h -0.0061 v 0.01843 h -0.0061 v 0.02439 h -0.006 v 0.0183 h -0.0061 v 0.0183 h -0.0061 v 0.0183 h -0.0061 v 0.01829 h -0.0061 v 0.01219 h -0.0062 v 0.01817 h -0.0061 v 0.01221 h -0.0061 v 0.0183 h -0.0061 v 0.01218 h -0.0061 v 0.0183 h -0.0061 v 0.01221 h -0.0061 q -0.003,0.01221 -0.0061,0.02439 h -0.0061 v 0.01221 h -0.006 v 0.01219 h -0.0061 v 0.01221 h -0.006 v 0.01221 h -0.0061 v 0.01218 h -0.0061 v 0.01221 h -0.0061 v 0.01219 h -0.0061 v 0.01217 h -0.0061 v 0.01221 h -0.0061 v 0.01219 l -0.01219,0.0061 q -0.003,0.01221 -0.0061,0.02441 l -0.01219,0.0061 q -0.003,0.01221 -0.0061,0.02439 l -0.01219,0.0061 v 0.01221 q -0.0061,0.0031 -0.01219,0.0061 v 0.01221 l -0.01219,0.0061 v 0.01221 l -0.01219,0.0061 v 0.01221 l -0.01219,0.0061 c -0.0018,0.0061 -0.0041,0.01221 -0.0061,0.0183 l -0.01829,0.01221 v 0.01219 l -0.02437,0.0183 v 0.01221 q -0.01219,0.0091 -0.02437,0.0183 v 0.01218 l -0.04266,0.03661 v 0.01221 l -0.05485,0.0488 -0.04875,0.0549 h -0.01219 l -0.02437,0.03049 h -0.0061 c -0.0018,0.0041 -0.0041,0.0081 -0.0061,0.01221 h -0.01219 l -0.02437,0.03049 -0.01829,0.0061 c -0.0018,0.004 -0.0041,0.0081 -0.0061,0.01219 h -0.01219 l -0.01219,0.0183 -0.01829,0.0061 c -0.0018,0.0041 -0.0041,0.0081 -0.0061,0.01221 h -0.01219 c -0.0018,0.004 -0.0041,0.0081 -0.0061,0.01221 h -0.01219 c -0.0018,0.004 -0.0041,0.0081 -0.0061,0.01219 h -0.01219 c -0.0018,0.0041 -0.0041,0.0081 -0.0061,0.01221 h -0.01219 l -0.0061,0.01218 -0.02437,0.0061 c -0.0018,0.004 -0.0041,0.0081 -0.0061,0.01219 l -0.02437,0.0061 c -0.0018,0.004 -0.0041,0.0081 -0.0061,0.01219 h -0.01225 v 0.0061 h -0.01219 v 0.0061 h -0.01219 v 0.0061 h -0.01219 v 0.0061 h -0.01219 v 0.0061 h -0.01219 v 0.0061 h -0.01219 v 0.0061 h -0.01219 v 0.0061 h -0.01219 v 0.0061 h -0.01219 v 0.0061 l -0.03656,0.01221 v 0.0061 h -0.01829 v 0.0062 h -0.01219 v 0.0061 l -0.03048,0.0061 v 0.0061 h -0.01829 v 0.0061 h -0.01219 v 0.0059 l -0.213349,0.061 h -0.03048 v 0.0062 h -0.03656 v 0.0061 h -0.03656 v 0.0061 h -0.04266 v 0.0061 h -0.0609 c -0.03709,0.01046 -0.09917,0.0061 -0.1463,0.0061 H 1.7688193 c -0.129013,0 -0.2810322,0.01212 -0.3840387,-0.0183 l -0.073149,-0.0061 -0.2437922,-0.06723 v -0.0061 h -0.012188 v -0.0061 h -0.018283 v -0.006 l -0.030473,-0.0061 v -0.006 h -0.0121887 v -0.0061 h -0.0181652 v -0.0061 h -0.0122469 v -0.0061 l -0.0243775,-0.0061 v -0.0061 h -0.0121887 v -0.0061 h -0.0121893 v -0.0061 h -0.0121887 v -0.0061 h -0.0121887 v -0.0061 h -0.0121887 v -0.0061 h -0.0122469 v -0.0061 h -0.0121888 v -0.0061 h -0.0121887 v -0.006 h -0.0121897 v -0.0061 h -0.0121887 l -0.006099,-0.01219 -0.0243775,-0.0061 -0.006152,-0.01219 -0.0243775,-0.0061 v -0.0061 l -0.0182837,-0.0061 -0.006099,-0.01221 h -0.0121887 v -0.0061 l -0.0182826,-0.0061 -0.006099,-0.01221 h -0.0123059 l -0.0121887,-0.0183 h -0.0121306 l -0.0121887,-0.0183 h -0.0121887 l -0.0121887,-0.0183 h -0.0121887 l -0.0121887,-0.0183 h -0.006099 l -0.006076,-0.01319 h -0.0121895 l -0.0365663,-0.0427 h -0.0120714 l -0.048755,-0.0549 -0.0548489,-0.0488 v -0.01221 l -0.0426601,-0.03661 v -0.01219 l -0.0304713,-0.02441 v -0.01219 l -0.0182826,-0.01221 v -0.01219 l -0.0182826,-0.01221 v -0.01221 l -0.0182826,-0.01219 v -0.01221 l -0.0121887,-0.0061 v -0.01221 l -0.0121887,-0.0061 v -0.01221 l -0.0121887,-0.0061 v -0.01221 l -0.0121887,-0.0061 -0.006099,-0.02439 -0.0121887,-0.0061 -0.006099,-0.02441 -0.0121887,-0.0061 v -0.01218 h -0.006152 v -0.0123 h -0.006152 v -0.01221 h -0.006099 v -0.01219 h -0.006099 v -0.01221 h -0.006099 v -0.01218 h -0.006099 v -0.01221 h -0.006099 v -0.01221 h -0.006099 v -0.01219 h -0.006101 v -0.01218 h -0.006099 l -0.006099,-0.02439 h -0.006099 v -0.01221 h -0.006099 v -0.0183 h -0.006099 v -0.01219 h -0.006099 l -0.006099,-0.03049 h -0.006099 v -0.01831 h -0.0060992 v -0.01203 h -0.0061004 l -0.06705556,-0.244059 -0.0060992,-0.07321 h -0.0060992 v -0.04268 H 0.00713026 v -0.061 C -0.00370931,11.472109 0.00103258,11.407452 0.00103258,11.35848 v -0.762571 l 0.00609914,-0.237918 c 0.00984106,-0.03419 0.01418127,-0.08254 0.0243775,-0.115892 v -0.03052 L 0.09256501,9.9982294 h 0.006152 v -0.012206 h 0.0060992 v -0.0183 h 0.006099 l 0.006099,-0.030486 h 0.006099 v -0.012206 h 0.006099 v -0.01839 h 0.006099 l 0.0121887,-0.036609 h 0.006099 v -0.012186 h 0.006099 v -0.012206 h 0.006099 v -0.012176 h 0.006099 v -0.012206 h 0.006099 v -0.012176 h 0.006099 v -0.012186 h 0.006099 v -0.012206 h 0.006099 v -0.012186 h 0.006152 v -0.012206 h 0.006036 v -0.012146 l 0.0121887,-0.00611 0.006099,-0.024393 0.0121887,-0.00611 0.006099,-0.024413 h 0.006099 l 0.006099,-0.018289 0.0121887,-0.00611 v -0.012187 h 0.006099 l 0.006099,-0.018308 0.0121887,-0.00613 v -0.012219 l 0.0182826,-0.012208 v -0.012204 l 0.0182826,-0.012209 v -0.012208 l 0.0243775,-0.018287 v -0.012208 l 0.0243775,-0.018298 v -0.012285 l 0.0426601,-0.036584 v -0.012208 l 0.0731441,-0.067101 0.0304724,-0.036605 h 0.0121922 l 0.0365663,-0.042704 h 0.0120957 l 0.0182826,-0.024397 h 0.0121887 l 0.0182826,-0.024418 h 0.0121887 l 0.0121887,-0.018287 0.0182826,-0.00613 0.006099,-0.012124 h 0.0121887 l 0.006099,-0.012208 h 0.0121887 l 0.006099,-0.012208 h 0.0121887 l 0.006099,-0.012187 h 0.0123642 l 0.006099,-0.012208 0.0242602,-0.00613 0.006099,-0.012208 0.0243775,-0.00613 0.006099,-0.012208 h 0.0122469 v -0.00613 h 0.0121887 v -0.00602 h 0.0121887 v -0.00613 h 0.0121887 v -0.00613 h 0.0122469 v -0.00613 h 0.0121887 v -0.00613 h 0.0121887 v -0.00613 h 0.0121887 v -0.00613 h 0.0121887 v -0.00613 h 0.0121887 v -0.00613 l 0.0243775,-0.00613 v -0.00613 h 0.0123061 v -0.00613 h 0.0182826 v -0.00613 h 0.0120714 v -0.00613 h 0.018283 v -0.00602 h 0.012188 v -0.00613 h 0.018342 v -0.00602 h 0.012188 v -0.00613 h 0.018282 v -0.00613 h 0.018342 v -0.00613 h 0.018283 v -0.00613 h 0.018282 v -0.00613 h 0.024378 v -0.00613 h 0.018283 v -0.00613 h 0.024378 v -0.00613 h 0.024378 v -0.00613 h 0.024378 v -0.00613 h 0.024436 v -0.00623 h 0.030472 v -0.00613 h 0.036566 v -0.00602 h 0.036566 v -0.00613 h 0.042719 v -0.00613 c 0.021389,-0.00613 0.047173,0.00613 0.060874,-0.00602 z m 9.430165,1.4273832 c -0.01518,0.01301 -0.05683,0.0051 -0.07924,0.01221 l -0.109734,0.03661 v 0.0061 l -0.02437,0.0061 v 0.0061 l -0.02437,0.0061 c -0.0018,0.0041 -0.0041,0.0081 -0.0061,0.01221 l -0.02437,0.0061 v 0.0061 l -0.01829,0.0061 -0.0061,0.01219 h -0.01219 l -0.01829,0.02439 a 0.58552629,0.58552629 0 0 0 -0.188955,0.250129 q -0.01518,0.05489 -0.03048,0.109796 v 0.0488 c -0.01587,0.05694 -0.003,0.148593 0.01219,0.195175 v 0.02439 h 0.0061 v 0.01831 h 0.0061 v 0.0183 h 0.0061 v 0.01843 h 0.0061 v 0.01221 h 0.0061 v 0.01815 h 0.0061 q 0.003,0.01221 0.0061,0.02441 h 0.0061 q 0.003,0.01221 0.0061,0.02439 l 0.01219,0.0061 q 0.003,0.01221 0.0061,0.02439 l 0.01219,0.0061 v 0.01217 l 0.01219,0.0061 v 0.01219 l 0.02437,0.0183 v 0.01221 l 0.04875,0.0427 q 0.01219,0.01518 0.02437,0.03049 h 0.01219 l 0.01829,0.02439 h 0.01219 l 0.0061,0.01221 0.01829,0.0061 v 0.0061 l 0.02437,0.0061 0.0061,0.01221 0.02437,0.0061 v 0.0061 l 0.02437,0.0061 v 0.0061 h 0.01829 v 0.0061 h 0.01219 v 0.0061 l 0.109728,0.03052 h 0.04876 a 0.29104994,0.29104994 0 0 0 0.115934,0.0061 v -0.0061 h 0.04875 v -0.0061 h 0.03036 v -0.0061 h 0.02437 v -0.0061 h 0.01829 v -0.0061 h 0.01829 v -0.0061 h 0.01822 v -0.0061 h 0.01219 v -0.0061 h 0.01829 v -0.0061 l 0.02437,-0.0061 v -0.0061 l 0.02437,-0.0061 0.0061,-0.01221 0.02437,-0.0061 0.0061,-0.01221 h 0.01219 c 0.0018,-0.0041 0.0041,-0.0081 0.0061,-0.01221 h 0.01219 l 0.01829,-0.02439 h 0.01219 l 0.04266,-0.04879 0.03048,-0.02439 v -0.01221 l 0.02437,-0.0183 v -0.01218 l 0.01219,-0.0061 q 0.003,-0.0092 0.0061,-0.0183 h 0.0061 q 0.003,-0.01219 0.0061,-0.02439 l 0.01219,-0.0061 q 0.003,-0.01219 0.0061,-0.02439 h 0.0061 q 0.003,-0.01219 0.0061,-0.02441 h 0.0061 v -0.01829 h 0.0061 v -0.01212 h 0.0061 q 0.01518,-0.05491 0.03036,-0.109796 v -0.04881 h 0.0061 c 0.01066,-0.0381 -0.0046,-0.139377 -0.01219,-0.164815 q -0.003,-0.02745 -0.0061,-0.0549 h -0.0061 v -0.0183 h -0.0061 q -0.003,-0.01829 -0.0061,-0.03659 h -0.0061 v -0.01221 h -0.0061 v -0.0183 h -0.0061 q -0.003,-0.01219 -0.0061,-0.02439 h -0.0059 q -0.003,-0.01218 -0.0061,-0.02439 l -0.01219,-0.0061 q -0.003,-0.01219 -0.0061,-0.02439 h -0.006 q -0.003,-0.0091 -0.0061,-0.0183 l -0.01219,-0.0061 v -0.01221 l -0.02437,-0.01829 c -0.07671,-0.106717 -0.18971,-0.169391 -0.329171,-0.213522 h -0.03036 c -0.04488,-0.01335 -0.105249,-0.0123 -0.164793,-0.01219 z"
     style="stroke-width:0.0216861" />
  <path
     id="Shape_334_1"
     data-name="Shape 334 1"
     class="cls-2"
     d="m 6.4289907,0.00300623 c 0.061055,-6.4469e-4 0.1678297,-0.00910066 0.2171639,0.00557104 v 0.005571 l 0.055791,0.0056232 v 0.005571 h 0.022272 v 0.005571 h 0.016701 v 0.005571 h 0.016701 v 0.005571 h 0.016701 v 0.005571 h 0.016701 v 0.005571 h 0.011131 v 0.0056232 h 0.016701 v 0.0055069 l 0.033402,0.01114548 v 0.005571 h 0.011131 v 0.005571 l 0.022272,0.005571 0.00581,0.01114547 0.022272,0.005571 q 0.00296,0.005571 0.00581,0.0111455 h 0.011133 v 0.005571 l 0.016701,0.005571 q 0.00296,0.005571 0.00581,0.0111455 h 0.011131 q 0.00296,0.005571 0.00581,0.0111455 l 0.016701,0.005571 0.027832,0.0334425 h 0.011131 l 0.033402,0.0390334 0.016701,0.0111455 v 0.0111455 l 0.027832,0.0222909 v 0.0111455 l 0.016701,0.0111455 v 0.0111455 l 0.016701,0.0111455 v 0.0111455 l 0.011131,0.005571 q 0.00296,0.0111455 0.00581,0.0222908 l 0.011131,0.005571 q 0.00581,0.0167182 0.011131,0.0334426 h 0.00581 v 0.0111455 h 0.00581 v 0.0111455 h 0.00528 l 0.011131,0.0334374 h 0.00581 v 0.0167182 h 0.00528 v 0.0111455 h 0.00581 q 0.00528,0.0250921 0.011131,0.0501609 h 0.00528 q 0.00296,0.0222909 0.00581,0.0445881 c 0.033654,0.10352219 0.022291,0.261008 0.022291,0.39574366 V 6.3741478 h 0.00581 a 0.34073293,0.34073293 0 0 1 0.061245,-0.061308 l 0.011132,-0.016722 0.1169299,-0.1114893 q 0.039026,-0.041806 0.077967,-0.083623 L 7.8784625,5.766539 8.2626772,5.3763615 8.4854149,5.1589798 V 5.1478387 L 8.6635867,4.9750228 8.7916674,4.8412616 8.9030247,4.7353471 q 0.036214,-0.039036 0.072386,-0.078074 h 0.011131 l 0.027832,-0.033434 h 0.011131 q 0.00835,-0.01112 0.016701,-0.022293 h 0.011131 c 0.00179,-0.0037 0.00349,-0.0074 0.00581,-0.011141 l 0.016701,-0.0056 v -0.0056 h 0.011131 l 0.00528,-0.011141 0.022272,-0.0056 c 0.00179,-0.0037 0.00349,-0.0074 0.00581,-0.011141 l 0.022272,-0.0056 v -0.0056 h 0.011131 v -0.00549 l 0.033402,-0.011141 v -0.0056 l 0.11693,-0.039036 0.050103,-0.0056 c 0.088676,-0.026584 0.2371643,-0.01576 0.3173991,0.011141 h 0.022272 v 0.0056 h 0.022272 v 0.0056 h 0.016701 v 0.0056 h 0.016701 v 0.0056 h 0.011131 v 0.0056 h 0.016701 v 0.0056 l 0.033402,0.011141 v 0.0056 h 0.011131 v 0.0056 h 0.011131 v 0.0056 h 0.011131 v 0.0056 h 0.011131 v 0.0056 h 0.011131 v 0.0056 h 0.011131 l 0.00528,0.011141 h 0.011131 v 0.0056 l 0.016701,0.0056 c 0.00179,0.0037 0.00349,0.0074 0.00581,0.011152 h 0.011131 l 0.00528,0.011141 0.016701,0.0056 q 0.00835,0.011152 0.016701,0.022293 c 0.1129382,0.081392 0.1889242,0.2077742 0.2394312,0.3511852 q 0.003,0.022293 0.0058,0.044586 c 0.03979,0.1200779 0.02485,0.3083771 -0.0167,0.4124715 v 0.016722 h -0.0053 v 0.011173 h -0.0058 v 0.016722 h -0.0058 v 0.011152 h -0.0058 v 0.016722 h -0.0053 q -0.0058,0.016722 -0.01113,0.033434 h -0.0058 q -0.003,0.011173 -0.0053,0.022293 l -0.01113,0.0056 q -0.003,0.011141 -0.0058,0.022293 h -0.0058 c -0.0018,0.0056 -0.0035,0.011141 -0.0053,0.016722 l -0.01113,0.0056 v 0.011141 l -0.01113,0.0056 v 0.010994 l -0.0167,0.011152 v 0.011141 l -0.02227,0.016722 v 0.011141 L 9.9272719,5.8224893 9.8716609,5.8839033 9.68791,6.0622718 7.3769682,8.3810855 l -0.217164,0.21181 c -0.051277,0.05133 -0.096265,0.1073902 -0.1559222,0.1505016 l -0.022272,0.027863 h -0.011131 l -0.011131,0.016722 h -0.011131 c -0.00179,0.0037 -0.00349,0.0074 -0.00528,0.011141 h -0.011131 q -0.00296,0.0056 -0.00581,0.011141 l -0.016701,0.0056 v 0.0056 l -0.033402,0.011162 c -0.00179,0.0037 -0.00349,0.0074 -0.00528,0.011141 h -0.011131 v 0.0056 h -0.011138 v 0.0056 h -0.016701 v 0.0056 h -0.011131 v 0.0056 l -0.022272,0.0056 v 0.0056 h -0.016701 v 0.0056 h -0.016707 v 0.0056 h -0.016701 v 0.0056 l -0.039026,0.0056 a 0.69471612,0.69471612 0 0 1 -0.4009159,-0.0056 l -0.039026,-0.0056 v -0.0056 H 6.258032 v -0.0056 h -0.0167 v -0.0056 H 6.230201 v -0.0056 H 6.213616 v -0.0056 L 6.180214,8.8494263 v -0.0056 h -0.011132 v -0.0056 l -0.022272,-0.0056 -0.00581,-0.011162 -0.022272,-0.0056 v -0.0056 l -0.016701,-0.0056 q -0.00296,-0.0056 -0.00581,-0.011141 h -0.011131 c -0.00179,-0.0037 -0.00349,-0.0074 -0.00528,-0.011141 l -0.016706,-0.0056 -0.011131,-0.016722 H 6.0408313 L 5.7849985,8.4979087 5.6012477,8.3195402 Q 5.3924565,8.1077323 5.1836199,7.8959233 L 2.9729773,5.6885112 v -0.011141 l -0.022268,-0.016722 v -0.011162 l -0.016701,-0.011141 v -0.011152 l -0.011134,-0.0056 v -0.011162 l -0.011134,-0.0056 -0.011134,-0.033444 -0.011134,-0.0056 q -0.00293,-0.011141 -0.00527,-0.022293 h -0.00527 q -0.00293,-0.011141 -0.00585,-0.022293 h -0.00585 v -0.016807 h -0.00585 q -0.00294,-0.01117 -0.00528,-0.022301 h -0.00585 v -0.016722 h -0.00585 v -0.016659 h -0.00585 v -0.016722 h -0.00527 v -0.016722 h -0.00585 v -0.022295 h -0.00585 v -0.022293 h -0.00585 v -0.027863 h -0.00527 v -0.039036 h -0.00585 v -0.061308 h -0.00585 q 0.00293,-0.069681 0.00585,-0.1393551 h 0.00585 v -0.033447 h 0.00527 v -0.027863 h 0.00585 v -0.022293 h 0.00585 v -0.022293 h 0.00585 v -0.016743 h 0.00585 v -0.016722 h 0.00585 v -0.016722 h 0.00585 v -0.016722 h 0.00585 v -0.011141 h 0.00526 v -0.016722 h 0.00585 q 0.00585,-0.016722 0.011132,-0.033445 h 0.00585 v -0.011141 h 0.00527 q 0.00293,-0.011141 0.00585,-0.022293 0.00527,-0.00286 0.011134,-0.0056 0.00293,-0.011173 0.00527,-0.022314 h 0.00585 c 0.00175,-0.0056 0.00352,-0.011141 0.00585,-0.016722 l 0.011134,-0.0056 v -0.011141 q 0.00585,-0.00275 0.011134,-0.0056 c 0.00175,-0.0056 0.00352,-0.011141 0.00585,-0.016722 l 0.016701,-0.011141 v -0.011152 l 0.033401,-0.027863 v -0.0056 l 0.011134,-0.0056 v -0.011141 l 0.011134,-0.0056 v -0.0056 h 0.011134 l 0.039027,-0.044617 h 0.011134 l 0.011134,-0.016722 0.016701,-0.0056 c 0.00175,-0.0037 0.00352,-0.0074 0.00585,-0.011141 h 0.011134 c 0.00175,-0.0037 0.00352,-0.0074 0.00585,-0.011141 l 0.016701,-0.0056 v -0.0056 l 0.022267,-0.0056 0.00585,-0.011141 0.022267,-0.0056 v -0.0056 l 0.033401,-0.011141 v -0.0056 h 0.016701 v -0.0056 l 0.022268,-0.0056 v -0.0056 h 0.016701 v -0.0056 h 0.016701 v -0.00549 h 0.016701 v -0.0056 h 0.016701 v -0.0056 l 0.044535,-0.0056 v -0.0056 h 0.027835 c 0.034398,-0.010253 0.1214418,-0.020792 0.1558984,-0.011141 h 0.077962 v 0.0056 h 0.033401 v 0.0056 h 0.027835 v 0.0056 h 0.027835 v 0.0056 h 0.016733 v 0.0056 l 0.055669,0.011173 v 0.0056 h 0.011134 v 0.0056 h 0.016701 v 0.0056 l 0.022267,0.0056 v 0.0056 h 0.011076 v 0.0056 l 0.027835,0.0056 q 0.00293,0.0056 0.00585,0.011141 l 0.033401,0.011141 c 0.00175,0.0037 0.00352,0.0074 0.00585,0.011152 h 0.011134 v 0.0056 l 0.016701,0.0056 c 0.00175,0.0037 0.00352,0.0074 0.00585,0.011141 h 0.011134 l 0.011134,0.016722 h 0.011134 q 0.00832,0.011141 0.016701,0.022293 a 1.021006,1.021006 0 0 1 0.1225026,0.1171054 l 0.072388,0.066879 0.222743,0.2285504 0.8964809,0.8918431 0.2505833,0.2564172 0.044533,0.039036 0.094659,0.094764 a 0.23889472,0.23889472 0 0 0 0.044533,0.044586 V 0.6886694 C 5.7868847,0.676914 5.7770062,0.6569439 5.7825467,0.638509 q 0.016701,-0.0696781 0.033402,-0.13935584 l 0.061245,-0.13378239 0.011131,-0.005571 q 0.00296,-0.0111455 0.00528,-0.0222909 l 0.011131,-0.005571 v -0.011175 l 0.016701,-0.0111455 v -0.0111455 l 0.016701,-0.0111455 v -0.0111454 l 0.027832,-0.0222908 v -0.0111451 l 0.016701,-0.0111455 0.033402,-0.0390334 h 0.011131 l 0.027832,-0.0334427 h 0.011131 l 0.011131,-0.0167182 h 0.011131 q 0.00296,-0.005571 0.00581,-0.0111455 h 0.011131 l 0.00528,-0.0111455 0.016701,-0.005571 v -0.005571 l 0.022272,-0.005571 q 0.00296,-0.005571 0.00581,-0.01114547 l 0.022272,-0.005571 v -0.005571 h 0.011131 v -0.005571 l 0.033424,-0.01114574 v -0.0055069 h 0.016701 v -0.0056232 h 0.011131 v -0.005571 l 0.11693,-0.03343635 c 0.021384,-0.00656418 0.052091,0.0017017 0.066815,-0.01117504 z"
     style="stroke-width:0.0216861" />
</svg>
