<?xml version="1.0" encoding="UTF-8" standalone="no"?>
<svg
   class="kOqhQd"
   aria-hidden="true"
   viewBox="0 0 12 13"
   version="1.1"
   id="svg4830"
   sodipodi:docname="teste.svg"
   width="12"
   height="13"
   xmlns:inkscape="http://www.inkscape.org/namespaces/inkscape"
   xmlns:sodipodi="http://sodipodi.sourceforge.net/DTD/sodipodi-0.dtd"
   xmlns="http://www.w3.org/2000/svg"
   xmlns:svg="http://www.w3.org/2000/svg">
  <defs
     id="defs4834" />
  <sodipodi:namedview
     id="namedview4832"
     pagecolor="#ffffff"
     bordercolor="#000000"
     borderopacity="0.25"
     inkscape:showpageshadow="2"
     inkscape:pageopacity="0.0"
     inkscape:pagecheckerboard="0"
     inkscape:deskcolor="#d1d1d1"
     showgrid="false" />
  <path
     fill="none"
     d="M -1.4584077,-0.59662141 H 12.776388 V 13.638175 H -1.4584077 Z"
     id="path4818"
     style="stroke-width:0.35587" />
  <g
     id="g4828">
    <path
       d="m 5.5965042,6.188099 -5.54826235,5.769952 c 0,0 0,0 0,0 0.18013841,0.609248 0.7565812,1.075145 1.44110725,1.075145 0.2882212,0 0.540415,-0.07168 0.756581,-0.21503 v 0 L 8.5147456,9.270185 Z"
       fill="#ea4335"
       id="path4820"
       style="stroke-width:0.359329" />
    <path
       d="m 11.1038,5.2396453 v 0 L 8.4347761,3.7094044 5.4454687,6.342842 8.470363,9.2965624 11.139388,7.8019087 C 11.602018,7.5527997 11.922302,7.0545818 11.922302,6.5207769 11.886714,5.9869721 11.566431,5.4887541 11.1038,5.2396453 Z"
       fill="#fbbc04"
       id="path4822"
       style="stroke-width:0.35587" />
    <path
       d="M 0.0981729,1.0661374 C 0.06261984,1.1727635 0.06200311,1.3149318 0.06138406,1.4570998 L 0.01736482,11.586579 c -6.1923e-4,0.142168 -0.0010787,0.248794 0.03339023,0.390961 L 5.6892601,6.3974424 Z"
       fill="#4285f4"
       id="path4824"
       style="stroke-width:0.353149" />
    <path
       d="M 5.5930035,6.4927209 8.4426397,3.7138284 2.2803013,0.26659474 C 2.0665785,0.12589127 1.7816148,0.05553959 1.496651,0.05553959 c -0.67678854,0 -1.28233627,0.45728605 -1.42481802,1.05527561 0,0 0,0 0,0 z"
       fill="#34a853"
       id="path4826"
       style="stroke-width:0.353974" />
  </g>
</svg>
