<?xml version="1.0" encoding="UTF-8" standalone="no"?>
<svg
   width="18"
   height="13"
   viewBox="0 0 17.999998 12.999999"
   version="1.1"
   id="svg2685"
   sodipodi:docname="Untitled-2.svg"
   inkscape:export-filename="Untitled-2_3.svg"
   inkscape:export-xdpi="96"
   inkscape:export-ydpi="96"
   xmlns:inkscape="http://www.inkscape.org/namespaces/inkscape"
   xmlns:sodipodi="http://sodipodi.sourceforge.net/DTD/sodipodi-0.dtd"
   xmlns="http://www.w3.org/2000/svg"
   xmlns:svg="http://www.w3.org/2000/svg">
  <sodipodi:namedview
     id="namedview2687"
     pagecolor="#ffffff"
     bordercolor="#000000"
     borderopacity="0.25"
     inkscape:showpageshadow="2"
     inkscape:pageopacity="0.0"
     inkscape:pagecheckerboard="0"
     inkscape:deskcolor="#d1d1d1"
     showgrid="false" />
  <defs
     id="defs2680">
    <style
       id="style2678">
      .cls-1 {
        fill: #3f51b5;
      }

      .cls-1, .cls-2 {
        fill-rule: evenodd;
      }

      .cls-2 {
        fill: #2196f3;
      }
    </style>
  </defs>
  <path
     id="Shape_325_1"
     data-name="Shape 325 1"
     class="cls-1"
     d="m 3.9197928,2.1457671 h 0.1289291 c 0.086474,0.1485399 0.133567,0.1254843 0.2577686,0.2155935 L 4.478309,2.576955 h 0.085953 l 0.1718164,0.2155933 h 0.085953 l 0.085953,0.1293568 0.3437221,0.2587128 c -0.024684,0.086677 0.00506,0.037309 -0.042972,0.086237 -0.040961,0.1527634 -0.3186897,0.3996847 -0.4296743,0.517425 l -0.085952,0.04312 v 0.086237 L 4.2204498,4.3448268 v 0.086237 H 4.1775626 L 4.0916936,4.5605077 3.7049951,4.9054576 v 0.086239 L 3.2323526,5.4228844 v 0.086235 H 3.1891986 L 3.1032476,5.638477 2.7165496,5.9831629 v 0.086238 l -0.08595,0.043121 v 0.043121 C 2.5193491,6.2708341 2.3796561,6.31976 2.3298524,6.5005953 l 0.386697,0.3448623 v 0.086237 l 0.5155393,0.4743066 v 0.086239 l 0.2147929,0.1724751 0.1718175,0.2155054 0.085953,0.043123 v 0.086236 l 0.085953,0.043123 v 0.043122 l 0.4296748,0.3880685 v 0.086239 L 4.6929291,9.00132 v 0.086235 l 0.2147958,0.1724755 0.3437209,0.3879804 c -0.024684,0.086671 0.00506,0.037315 -0.042972,0.086234 L 5.0798083,9.9067045 H 4.9938629 L 4.822036,10.122295 H 4.7360837 L 4.5642594,10.33789 h -0.085952 l -0.1718185,0.215594 h -0.085952 v 0.04313 C 4.1197932,10.681074 4.0892458,10.746199 3.9197931,10.76908 L 0.09605309,6.5004979 c 0.024683,-0.086589 -0.00517,-0.037309 0.042976,-0.08624 0.039213,-0.1466031 0.2042021,-0.2855515 0.3007453,-0.3879799 l 0.085953,-0.04312 V 5.8969202 L 0.91242449,5.5519731 V 5.4657351 L 1.2991223,5.1207848 V 5.0345471 L 1.68582,4.689597 V 4.6033606 L 2.0725181,4.2584098 V 4.1721728 L 2.4592158,3.8272229 v -0.086238 l 0.3866977,-0.34495 v -0.086238 l 0.3866982,-0.34495 v -0.086237 l 0.171817,-0.1293567 z"
     style="fill:#7e56cb;fill-opacity:1;stroke-width:0.087762" />
  <path
     id="Shape_325_1_copy"
     data-name="Shape 325 1 copy"
     class="cls-1"
     d="m 13.769908,2.1457671 h -0.128835 c -0.08656,0.149596 -0.133566,0.126364 -0.257857,0.2170896 l -0.17208,0.2170895 h -0.08596 l -0.171814,0.2170905 h -0.08594 l -0.08517,0.1302354 -0.344161,0.2604728 c 0.0246,0.087294 -0.005,0.037571 0.04298,0.086855 0.04089,0.1538196 0.3186,0.4025005 0.429587,0.5210331 l 0.08594,0.043384 v 0.086855 l 0.472653,0.4341791 v 0.086941 h 0.04299 l 0.08595,0.1302356 0.38661,0.347326 v 0.086853 l 0.472648,0.4341808 v 0.086854 h 0.04299 l 0.08586,0.1302354 0.386701,0.347326 v 0.086854 l 0.08596,0.043386 v 0.043386 c 0.11116,0.1159819 0.250853,0.1652595 0.300744,0.347326 l -0.386711,0.3474134 v 0.086853 l -0.515541,0.4775589 v 0.086855 L 14.24258,7.7033426 Q 14.15672,7.8118428 14.070761,7.920432 l -0.08594,0.043387 v 0.086853 l -0.08586,0.043387 v 0.04347 l -0.429678,0.3907061 v 0.086854 L 12.996624,9.049253 v 0.087121 l -0.214359,0.1735309 -0.34372,0.3907089 c 0.0246,0.087285 -0.005,0.037568 0.04298,0.086847 l 0.128837,0.1737072 h 0.08594 l 0.171819,0.21709 h 0.08595 l 0.171817,0.217089 h 0.08525 l 0.171798,0.217092 h 0.08593 v 0.04338 c 0.10075,0.0851 0.131291,0.150916 0.300749,0.173708 l 3.823747,-4.2984974 c -0.02467,-0.087206 0.005,-0.037486 -0.04299,-0.086766 -0.03901,-0.147923 -0.20418,-0.287663 -0.300722,-0.3907956 L 17.16369,6.010085 V 5.923236 L 16.777101,5.575909 V 5.4890553 L 16.390666,5.1412901 V 5.0547878 L 16.00397,4.7074617 V 4.6206079 L 15.617358,4.2732817 V 4.1864285 L 15.23066,3.8389263 V 3.7522492 L 14.843962,3.4049228 V 3.3180682 L 14.457351,2.9707429 V 2.8838897 L 14.285445,2.7536544 Z"
     style="fill:#466cd0;fill-opacity:1;stroke-width:0.087762" />
  <path
     id="Shape_326_1"
     data-name="Shape 326 1"
     class="cls-2"
     d="m 9.8751837,0.01983637 c 0.1995633,0.0055546 0.2975943,0.0762088 0.4311633,0.12935645 h 0.129369 v 0.0431145 h 0.129371 v 0.0431222 h 0.129369 v 0.0431222 h 0.12937 v 0.0431145 h 0.129103 c 0.192037,0.077174 0.350639,0.18479482 0.603945,0.21559332 -0.0049,0.27622426 -0.133744,0.48548216 -0.215583,0.68990066 v 0.1293566 h -0.04315 v 0.1293568 h -0.04315 v 0.1293568 h -0.04306 v 0.1293568 h -0.04315 v 0.086237 h -0.04305 v 0.1724769 h -0.04315 v 0.086236 h -0.04318 l -0.04272,0.2587124 h -0.04377 v 0.1293569 h -0.04289 v 0.1293567 h -0.04306 v 0.1293574 h -0.04316 v 0.1293568 h -0.04316 v 0.1293571 h -0.04306 V 3.124391 h -0.04315 q -0.04307,0.1935938 -0.08621,0.3880685 h -0.04315 v 0.086239 h -0.04316 v 0.1724747 h -0.04307 v 0.086237 h -0.04315 l -0.258756,0.905487 C 9.772002,5.7748678 9.4592658,6.8976276 9.0558505,7.9105662 L 8.7972238,8.8160606 h -0.043146 v 0.086235 h -0.043145 v 0.1724756 h -0.043066 v 0.086236 h -0.043145 l -0.086212,0.3880692 h -0.043145 v 0.1293577 h -0.043147 v 0.1293545 h -0.043066 v 0.1293576 h -0.043145 v 0.1293588 h -0.043065 v 0.129356 h -0.043146 v 0.129358 h -0.043146 l -0.043146,0.258712 h -0.043066 v 0.08623 h -0.043145 v 0.172473 h -0.042718 v 0.08623 h -0.043788 l -0.2155814,0.776133 h -0.042892 v 0.129357 h -0.043146 v 0.129356 h -0.043068 v 0.129357 h -0.043146 v 0.129358 h -0.043065 v 0.129355 h -0.043147 v 0.08624 h -0.043144 v 0.172473 H 7.4606113 A 1.0513839,1.0570255 0 0 0 7.3743993,12.95545 C 7.1748369,12.950065 7.0768062,12.879245 6.9432387,12.826101 H 6.8137258 v -0.04312 H 6.6843559 v -0.04312 H 6.5549861 v -0.04312 h -0.12937 v -0.04312 H 6.2965117 C 6.1045743,12.577178 5.9357339,12.467619 5.6924945,12.438052 5.6972503,12.161827 5.8262367,11.95257 5.9080749,11.748153 l 0.086211,-0.388071 h 0.043146 l 0.086212,-0.388069 h 0.043147 v -0.08624 h 0.043146 l 0.086211,-0.388068 h 0.043146 v -0.12937 h 0.043147 v -0.129352 h 0.043146 v -0.129358 h 0.043146 V 9.9802635 h 0.042986 V 9.8509068 h 0.043146 L 6.5980069,9.592195 h 0.043146 l 0.086212,-0.3880682 h 0.043146 v -0.086235 h 0.043146 V 8.9885331 h 0.042893 V 8.8591756 h 0.043143 V 8.7298155 h 0.043146 V 8.6004587 h 0.043146 V 8.4711004 h 0.043146 V 8.3417436 h 0.043148 L 7.1154135,8.0830309 C 7.5034338,7.1132201 7.8068929,6.0342835 8.1934157,5.0647274 l 0.043146,-0.2587129 h 0.043146 V 4.6766577 h 0.043146 V 4.5473008 h 0.043146 V 4.417944 h 0.043147 V 4.2885858 h 0.043141 V 4.159229 h 0.043146 V 4.0298721 h 0.043146 V 3.9005152 h 0.043146 v -0.086239 h 0.042798 v -0.129357 h 0.043145 V 3.5555624 h 0.043147 V 3.4262055 h 0.043146 v -0.129357 h 0.043147 V 3.1674904 h 0.043146 V 3.0381337 h 0.043149 v -0.129357 h 0.043149 V 2.7794198 h 0.043068 V 2.6500669 h 0.043149 l 0.043066,-0.2587127 h 0.043149 q 0.021529,-0.129357 0.043147,-0.2587129 h 0.042542 v -0.086228 h 0.043781 V 1.9170557 h 0.043149 V 1.7876988 h 0.04307 V 1.658342 h 0.043149 V 1.5289851 h 0.043149 V 1.3996283 h 0.04307 v -0.129358 h 0.043149 V 1.1409139 h 0.043147 V 1.0115578 h 0.04307 V 0.88220195 h 0.043148 V 0.75284967 h 0.043149 L 9.7027673,0.49414599 C 9.7640859,0.34067848 9.8498587,0.22733752 9.8749767,0.01983966 Z"
     style="stroke-width:0.087762" />
</svg>
