<?xml version="1.0" encoding="UTF-8" standalone="no"?>
<svg
   width="20"
   height="14.85"
   viewBox="0 0 20 14.85"
   version="1.1"
   id="svg2685"
   sodipodi:docname="Untitled-2.svg"
   xmlns:inkscape="http://www.inkscape.org/namespaces/inkscape"
   xmlns:sodipodi="http://sodipodi.sourceforge.net/DTD/sodipodi-0.dtd"
   xmlns="http://www.w3.org/2000/svg"
   xmlns:svg="http://www.w3.org/2000/svg">
  <sodipodi:namedview
     id="namedview2687"
     pagecolor="#ffffff"
     bordercolor="#000000"
     borderopacity="0.25"
     inkscape:showpageshadow="2"
     inkscape:pageopacity="0.0"
     inkscape:pagecheckerboard="0"
     inkscape:deskcolor="#d1d1d1"
     showgrid="false" />
  <defs
     id="defs2680">
    <style
       id="style2678">
      .cls-1 {
        fill: #3f51b5;
      }

      .cls-1, .cls-2 {
        fill-rule: evenodd;
      }

      .cls-2 {
        fill: #2196f3;
      }
    </style>
  </defs>
  <path
     id="Shape_325_1"
     data-name="Shape 325 1"
     class="cls-1"
     d="m 4.3811266,2.4633642 h 0.146952 c 0.098563,0.169304 0.152238,0.1430254 0.2938014,0.2457308 l 0.1958367,0.2457318 h 0.097968 l 0.1958341,0.2457307 h 0.097968 l 0.097968,0.1474394 0.3917704,0.2948777 c -0.028134,0.098794 0.00576,0.042525 -0.04898,0.098292 C 5.8035591,3.915284 5.4870084,4.1967217 5.3605094,4.3309209 l -0.097967,0.049148 v 0.098291 L 4.7238115,4.9698258 v 0.098291 H 4.6749295 L 4.5770571,5.2156563 4.1363027,5.6088261 v 0.098294 l -0.538712,0.4914628 v 0.098291 H 3.5484041 L 3.450438,6.4443141 3.0096842,6.837183 V 6.935476 L 2.9117182,6.984625 V 7.033774 C 2.7849178,7.1650657 2.6256974,7.2208307 2.5689318,7.4269447 l 0.4407525,0.3930698 v 0.098293 L 3.5972898,8.458916 V 8.55721 l 0.2448185,0.196585 0.1958354,0.2456305 0.097968,0.04915 v 0.098291 l 0.097968,0.049151 v 0.04915 L 4.723618,9.6874832 v 0.098294 L 5.2623378,10.27724 v 0.09829 l 0.2448211,0.196585 0.3917689,0.442216 c -0.028134,0.09879 0.00576,0.04253 -0.04898,0.09829 L 5.7032984,11.309186 H 5.6053395 L 5.4094932,11.554914 H 5.3115257 L 5.1156824,11.800647 H 5.0177148 L 4.821878,12.046378 H 4.72391 v 0.04915 C 4.6090846,12.19181 4.5742668,12.266032 4.3811266,12.29211 L 0.02287438,7.4268336 C 0.05100797,7.3281401 0.01698349,7.3843091 0.0718584,7.3285389 0.11655269,7.1614424 0.30460558,7.0030707 0.41464434,6.886324 l 0.097968,-0.049148 V 6.7388831 L 0.95336468,6.3457165 V 6.2474236 L 1.3941183,5.8542536 V 5.7559606 L 1.8348717,5.3627908 V 5.2644994 L 2.2756253,4.8713287 V 4.773037 L 2.7163787,4.3798672 V 4.2815742 L 3.157132,3.8884044 V 3.7901115 L 3.597886,3.3969417 V 3.2986503 L 3.793721,3.1512109 Z"
     style="stroke-width:0.10003" />
  <path
     id="Shape_325_1_copy"
     data-name="Shape 325 1 copy"
     class="cls-1"
     d="m 15.608169,2.4633642 h -0.146845 c -0.09865,0.1705077 -0.152237,0.1440282 -0.293901,0.2474361 l -0.196136,0.247436 h -0.09798 l -0.195828,0.247437 h -0.09797 l -0.09708,0.1484408 -0.392269,0.2968838 c 0.02803,0.099495 -0.0058,0.042823 0.04899,0.098996 0.0466,0.1753217 0.363137,0.4587653 0.489638,0.5938673 l 0.09797,0.049449 v 0.098996 l 0.538722,0.4948721 v 0.099095 h 0.049 l 0.09798,0.1484408 0.440652,0.395878 v 0.098994 l 0.538722,0.494872 v 0.098994 h 0.049 l 0.09786,0.1484408 0.440756,0.395878 v 0.098994 l 0.09798,0.049451 v 0.049451 c 0.126699,0.1321948 0.28592,0.1883607 0.342784,0.3958779 l -0.440765,0.3959786 v 0.098994 l -0.587607,0.5443152 v 0.098996 L 16.14693,8.7978182 q -0.09786,0.123667 -0.195835,0.2474358 l -0.09795,0.049451 v 0.098994 l -0.09786,0.049451 v 0.049546 l -0.489742,0.445323 v 0.098995 l -0.53875,0.494859 v 0.0993 l -0.244321,0.197788 -0.391769,0.445325 c 0.02803,0.09949 -0.0058,0.04282 0.04899,0.09899 l 0.146847,0.197989 h 0.09796 l 0.195835,0.247436 h 0.09797 l 0.195834,0.247436 h 0.09716 l 0.195813,0.247439 h 0.09795 v 0.04945 c 0.114829,0.09699 0.149641,0.172012 0.342788,0.197989 l 4.358251,-4.899378 c -0.02814,-0.099395 0.0058,-0.042728 -0.049,-0.098893 C 19.872635,7.1941432 19.684379,7.0348692 19.57434,6.91732 L 19.47637,6.867869 V 6.7688761 L 19.035732,6.3729983 V 6.2740036 L 18.595277,5.8776251 V 5.7790309 L 18.154525,5.3831527 V 5.2841577 L 17.71387,4.8882797 V 4.7892853 L 17.273115,4.3932066 V 4.294413 L 16.832363,3.8985346 V 3.7995389 L 16.391709,3.4036616 V 3.3046675 L 16.195772,3.1562267 Z"
     style="stroke-width:0.10003" />
  <path
     id="Shape_326_1"
     data-name="Shape 326 1"
     class="cls-2"
     d="m 11.169009,0.04025417 c 0.22746,0.0063332 0.339195,0.08686243 0.491434,0.14743888 h 0.147454 v 0.0491417 h 0.147455 v 0.04915 h 0.147454 v 0.04915 h 0.147454 v 0.0491418 h 0.147151 c 0.218882,0.0879615 0.399653,0.21062689 0.688368,0.24573076 -0.0056,0.31483703 -0.152439,0.55334679 -0.245718,0.78634039 v 0.147439 h -0.04918 v 0.1474394 h -0.04918 v 0.1474393 h -0.04908 v 0.1474394 h -0.04918 v 0.098292 h -0.04908 v 0.1965858 h -0.04918 v 0.098291 h -0.04918 l -0.04869,0.2948778 h -0.04988 v 0.1474393 h -0.04889 v 0.1474394 h -0.04908 v 0.1474394 h -0.04918 v 0.1474394 h -0.04918 v 0.1474394 h -0.04908 v 0.1474394 h -0.04918 q -0.04909,0.2206558 -0.09826,0.4423156 h -0.04918 v 0.098294 h -0.04918 v 0.1965846 h -0.04909 v 0.098292 h -0.04918 l -0.294943,1.0320636 c -0.461604,1.1534318 -0.818057,2.4331397 -1.277865,3.587675 L 9.9403635,10.066084 h -0.049176 v 0.09829 h -0.049176 v 0.196586 h -0.049087 v 0.09829 H 9.743748 L 9.645485,10.901565 H 9.596309 v 0.14744 H 9.547131 v 0.147439 H 9.498045 v 0.14744 H 9.448869 v 0.147439 H 9.399782 v 0.147439 H 9.350606 v 0.14744 H 9.30143 L 9.252254,12.08108 H 9.203168 v 0.09829 H 9.153992 v 0.196582 h -0.04869 v 0.09829 H 9.055393 l -0.2457172,0.88463 h -0.048888 v 0.14744 h -0.049176 v 0.147439 h -0.049087 v 0.147439 h -0.049176 v 0.14744 h -0.049086 v 0.147439 h -0.049178 v 0.09829 h -0.049176 v 0.196583 h -0.048995 a 1.1983546,1.2047848 0 0 0 -0.098263,0.39318 C 8.0911914,14.777867 7.9794572,14.697253 7.8272186,14.636683 H 7.6795965 v -0.04914 H 7.5321422 v -0.04915 H 7.384688 v -0.04914 H 7.2372338 v -0.04914 H 7.0900822 C 6.8713143,14.352954 6.6788719,14.22808 6.4016307,14.194379 c 0.00542,-0.314837 0.1524377,-0.553346 0.2457157,-0.78634 l 0.098263,-0.442316 h 0.049176 l 0.098263,-0.442316 h 0.049178 v -0.09829 h 0.049176 l 0.098263,-0.442316 h 0.049176 v -0.147454 h 0.049178 v -0.14744 h 0.049176 v -0.147439 h 0.049176 v -0.14744 h 0.048995 v -0.147439 h 0.049176 l 0.049176,-0.294877 h 0.049176 l 0.098263,-0.442316 h 0.049176 v -0.09829 h 0.049176 v -0.14744 h 0.048888 v -0.14744 h 0.049176 V 9.9677829 h 0.049176 V 9.8203435 h 0.049176 V 9.6729026 h 0.049176 V 9.5254632 H 7.97428 L 8.0234562,9.2305857 C 8.4657173,8.125207 8.8115964,6.8954482 9.2521504,5.7903598 l 0.049176,-0.2948777 h 0.049176 V 5.3480427 h 0.049176 V 5.2006033 h 0.049176 V 5.053164 h 0.049178 V 4.9057231 h 0.049176 V 4.7582837 h 0.049176 V 4.6108443 h 0.049176 V 4.4634049 h 0.049176 v -0.098294 h 0.048782 V 4.2176712 h 0.049176 V 4.0702318 h 0.049176 V 3.9227924 h 0.049176 V 3.775353 h 0.049178 V 3.6279121 h 0.049176 V 3.4804728 h 0.04918 V 3.3330334 h 0.04918 V 3.185594 h 0.04909 V 3.0381591 h 0.04918 L 10.23512,2.7432813 H 10.2843 Q 10.30884,2.595842 10.33348,2.4484036 h 0.04849 v -0.098282 h 0.0499 V 2.2026817 h 0.04918 V 2.0552423 h 0.04909 V 1.9078029 h 0.04918 V 1.7603636 H 10.6285 V 1.6129242 h 0.04909 V 1.4654836 h 0.04918 V 1.3180447 h 0.04918 V 1.1706063 h 0.04909 V 1.023168 h 0.04918 V 0.8757338 h 0.04918 l 0.04909,-0.2948673 c 0.06989,-0.17492042 0.167652,-0.30410512 0.196283,-0.54060862 z"
     style="stroke-width:0.10003" />
</svg>
