<?xml version="1.0" encoding="UTF-8" standalone="no"?>
<svg
   width="16.161615"
   height="12"
   viewBox="0 0 16.161615 12"
   version="1.1"
   id="svg2685"
   sodipodi:docname="Untitled-2.svg"
   inkscape:export-filename="Untitled-2_1.svg"
   inkscape:export-xdpi="96"
   inkscape:export-ydpi="96"
   xmlns:inkscape="http://www.inkscape.org/namespaces/inkscape"
   xmlns:sodipodi="http://sodipodi.sourceforge.net/DTD/sodipodi-0.dtd"
   xmlns="http://www.w3.org/2000/svg"
   xmlns:svg="http://www.w3.org/2000/svg">
  <sodipodi:namedview
     id="namedview2687"
     pagecolor="#ffffff"
     bordercolor="#000000"
     borderopacity="0.25"
     inkscape:showpageshadow="2"
     inkscape:pageopacity="0.0"
     inkscape:pagecheckerboard="0"
     inkscape:deskcolor="#d1d1d1"
     showgrid="false" />
  <defs
     id="defs2680">
    <style
       id="style2678">
      .cls-1 {
        fill: #3f51b5;
      }

      .cls-1, .cls-2 {
        fill-rule: evenodd;
      }

      .cls-2 {
        fill: #2196f3;
      }
    </style>
  </defs>
  <path
     id="Shape_325_1"
     data-name="Shape 325 1"
     class="cls-1"
     d="M 3.6007043,1.9795975 H 3.719556 c 0.079715,0.1369296 0.1231269,0.115676 0.2376205,0.198742 l 0.1583887,0.1987428 h 0.079235 l 0.1583865,0.1987418 h 0.079235 l 0.079235,0.119246 0.3168557,0.2384909 C 4.8057584,3.013463 4.8331724,2.967954 4.7888984,3.013057 4.7511379,3.15388 4.4951185,3.381501 4.3928088,3.4900385 l -0.079234,0.03975 v 0.079496 L 3.8778609,4.0067716 v 0.079496 H 3.838326 L 3.7591688,4.2055942 3.4026959,4.5235817 v 0.079498 l -0.4356991,0.397485 v 0.079495 H 2.9272159 L 2.8479833,5.1993066 2.4915108,5.5170508 v 0.079497 l -0.079232,0.039751 v 0.039751 C 2.3097238,5.782236 2.1809497,5.8273376 2.1350388,5.9940383 l 0.3564715,0.3179066 v 0.079497 l 0.4752431,0.4372332 v 0.079498 l 0.1980041,0.1589939 0.1583876,0.1986609 0.079235,0.039752 v 0.079495 l 0.079235,0.039753 v 0.039752 l 0.39609,0.3577358 v 0.079498 l 0.4357054,0.3974848 v 0.079495 l 0.1980062,0.1589939 0.3168545,0.3576547 c -0.022754,0.079897 0.00466,0.034399 -0.039614,0.079493 L 4.6700493,9.1339148 H 4.5908219 L 4.4324254,9.3326536 H 4.3531918 L 4.1947978,9.5313975 H 4.1155636 L 3.9571749,9.7301404 H 3.8779403 V 9.769892 C 3.7850715,9.8477591 3.756912,9.9077925 3.6007042,9.9288843 L 0.07584048,5.9939484 C 0.09859434,5.9141271 0.07107655,5.9595556 0.11545777,5.9144492 0.15160557,5.7793051 0.30369885,5.6512174 0.3926959,5.5567951 l 0.0792345,-0.03975 V 5.4375484 L 0.8284017,5.1195634 V 5.0400661 L 1.184874,4.7220783 V 4.6425811 L 1.5413462,4.3245935 V 4.2450975 L 1.8978186,3.9271092 V 3.8476128 L 2.2542908,3.5296253 V 3.4501282 L 2.6107629,3.1321406 V 3.0526434 L 2.9672356,2.7346558 V 2.6551595 L 3.1256228,2.5359137 Z"
     style="stroke-width:0.0809022" />
  <path
     id="Shape_325_1_copy"
     data-name="Shape 325 1 copy"
     class="cls-1"
     d="m 12.680902,1.9795975 h -0.118765 c -0.07979,0.1379031 -0.123126,0.116487 -0.237701,0.2001212 l -0.15863,0.200121 h -0.07924 l -0.158381,0.200122 h -0.07923 l -0.07851,0.1200558 -0.31726,0.2401134 c 0.02267,0.08047 -0.0046,0.034634 0.03962,0.080066 0.03769,0.1417965 0.293697,0.3710398 0.396009,0.4803075 l 0.07923,0.039993 v 0.080066 l 0.435708,0.4002423 v 0.080145 h 0.03963 l 0.07924,0.1200559 0.356391,0.3201779 v 0.080064 l 0.435705,0.4002438 v 0.080065 h 0.03963 l 0.07915,0.1200558 0.356474,0.3201779 v 0.080065 l 0.07924,0.039995 v 0.039995 c 0.102472,0.1069164 0.231246,0.1523422 0.277237,0.3201778 L 13.789965,6.3422823 V 6.422347 L 13.31472,6.8625778 v 0.080066 l -0.198079,0.1601299 q -0.07915,0.1000193 -0.158388,0.2001209 l -0.07922,0.039995 v 0.080064 l -0.07915,0.039995 v 0.040072 L 12.40379,7.8631879 v 0.080065 l -0.43573,0.4002317 v 0.080312 l -0.197602,0.1599668 -0.316854,0.3601699 c 0.02267,0.080463 -0.0046,0.034631 0.03962,0.080059 l 0.118767,0.1601295 h 0.07923 l 0.158388,0.2001214 h 0.07924 l 0.158387,0.2001205 h 0.07858 l 0.158369,0.2001235 h 0.07922 v 0.039994 c 0.09287,0.078443 0.121028,0.1391195 0.277241,0.1601294 l 3.524862,-3.9625157 c -0.02275,-0.080389 0.0046,-0.034557 -0.03963,-0.079983 C 16.129917,5.8057507 15.97766,5.6769332 15.888664,5.5818618 l -0.07924,-0.039992 V 5.461806 L 15.453044,5.1416284 V 5.0615634 L 15.096813,4.7409808 V 4.6612398 L 14.740342,4.3410617 V 4.2609967 L 14.383949,3.9408187 V 3.8607542 L 14.027477,3.5404139 V 3.4605118 L 13.671005,3.1403335 V 3.0602678 L 13.314613,2.7400905 V 2.6600261 L 13.156144,2.5399703 Z"
     style="stroke-width:0.0809022" />
  <path
     id="Shape_326_1"
     data-name="Shape 326 1"
     class="cls-2"
     d="M 9.0906026,0.01983637 C 9.2745675,0.02495677 9.3649364,0.09008845 9.4880642,0.1390819 H 9.6073218 V 0.1788264 H 9.7265804 V 0.218578 h 0.1192577 v 0.0397516 h 0.1192577 v 0.0397445 h 0.1190122 c 0.177027,0.0711418 0.323231,0.17035067 0.556738,0.19874186 -0.0045,0.25463368 -0.12329,0.44753541 -0.198732,0.63597584 v 0.1192456 h -0.03977 v 0.1192459 h -0.03977 v 0.1192459 h -0.03969 v 0.1192459 h -0.03977 v 0.079496 h -0.03969 v 0.1589953 h -0.03977 v 0.079496 h -0.0398 l -0.03938,0.2384906 h -0.04035 v 0.1192459 h -0.03954 v 0.1192459 h -0.03969 V 2.5239911 H 9.9651149 V 2.643237 H 9.9253371 V 2.762483 H 9.885642 V 2.8817288 H 9.845866 Q 9.806163,3.0601907 9.766395,3.2394646 H 9.726619 v 0.079498 H 9.686843 V 3.4779561 H 9.64714 v 0.079496 H 9.6073656 L 9.3688218,4.3921644 C 8.995486,5.325036 8.7071943,6.3600372 8.3353112,7.2938013 l -0.2384116,0.834718 h -0.039773 v 0.079495 H 8.017354 V 8.367009 h -0.0397 V 8.446504 H 7.937881 L 7.858408,8.8042398 H 7.818635 V 8.9234865 H 7.778861 v 0.1192437 h -0.0397 v 0.119247 H 7.6993886 V 9.281224 h -0.0397 V 9.4004697 H 7.6199157 V 9.5197164 H 7.5801429 L 7.54037,9.7582069 H 7.50067 V 9.8377 H 7.460897 V 9.9966913 H 7.421518 v 0.079493 H 7.381152 l -0.1987309,0.715471 h -0.03954 v 0.119246 h -0.039773 v 0.119246 h -0.039701 v 0.119245 h -0.039773 v 0.119247 h -0.0397 v 0.119245 h -0.039774 v 0.07949 h -0.039771 v 0.158992 h -0.039626 a 0.9692043,0.97440491 0 0 0 -0.079473,0.317995 c -0.1839643,-0.005 -0.2743326,-0.07025 -0.39746,-0.119239 H 6.2684382 v -0.03974 h -0.119258 v -0.03975 H 6.0299224 v -0.03974 h -0.119258 v -0.03974 H 5.7916513 C 5.6147163,11.595654 5.459073,11.49466 5.234846,11.467404 5.2392292,11.21277 5.3581345,11.019869 5.4335758,10.831429 l 0.079473,-0.357737 h 0.039773 l 0.079473,-0.357736 h 0.039774 v -0.0795 h 0.039773 L 5.791314,9.6787198 H 5.831087 V 9.559462 H 5.870861 V 9.4402163 H 5.910634 V 9.3209705 H 5.950407 V 9.2017238 H 5.990033 V 9.0824781 H 6.029806 L 6.0695782,8.8439876 H 6.109351 L 6.188824,8.4862521 H 6.228597 V 8.4067571 H 6.26837 V 8.2875107 H 6.30791 V 8.1682643 H 6.347681 V 8.0490154 H 6.387454 V 7.9297695 H 6.427227 V 7.8105223 H 6.467 V 7.6912764 H 6.506775 L 6.546545,7.4527856 C 6.9042364,6.5587783 7.1839762,5.5641749 7.5402871,4.6704024 l 0.039773,-0.238491 h 0.039773 V 4.3126655 h 0.039773 V 4.1934196 h 0.039773 V 4.0741737 h 0.039774 V 3.9549266 H 7.778925 V 3.8356807 H 7.818698 V 3.7164347 H 7.858471 V 3.5971888 H 7.898244 V 3.5176908 H 7.937698 V 3.3984445 H 7.97747 V 3.2791986 H 8.017243 V 3.1599527 H 8.057016 V 3.0407067 H 8.09679 V 2.9214596 H 8.136563 V 2.8022138 H 8.176339 V 2.6829678 H 8.216115 V 2.5637219 H 8.255817 V 2.4444796 h 0.039776 l 0.0397,-0.2384909 H 8.375069 Q 8.394917,2.0867427 8.414845,1.9674977 H 8.454062 V 1.8880097 H 8.494421 V 1.7687629 H 8.534197 V 1.649517 H 8.5739 V 1.5302711 H 8.613676 V 1.4110252 H 8.653452 V 1.2917793 H 8.693155 V 1.1725324 H 8.732931 V 1.0532869 H 8.772706 V 0.93404169 H 8.812409 V 0.81479667 H 8.852184 V 0.69555498 H 8.89196 L 8.931663,0.45707242 C 8.9881889,0.31560043 9.0672564,0.21111855 9.0904126,0.0198394 Z"
     style="stroke-width:0.0809022" />
</svg>
